<?xml version="1.0" encoding="UTF-8"?>

<svg xmlns="http://www.w3.org/2000/svg" version="1.1"
	width="210mm"
	height="297mm"
	viewBox="0 0 210 297">
	<!-- Working space 0 0 210 297 -->
	<defs>
		<radialGradient
			id="radialGradient3661"
			gradientUnits="userSpaceOnUse"
			cy="29.149"
			cx="282.65"
			gradientTransform="matrix(.14777 .23089 -.24680 .15795 -26.318 -62.617)"
			r="19.571">
				<stop stop-color="#71b2f8" offset="0"/>
				<stop stop-color="#002795" offset="1"/>
		</radialGradient>
		<radialGradient
			id="radialGradient3817"
			gradientUnits="userSpaceOnUse"
			cy="33.9"
			cx="270.58"
			gradientTransform="matrix(.26631 .065024 -.17931 .73438 -60.668 -36.938)"
			r="19.571">
				<stop stop-color="#ff6d0f" offset="0"/>
				<stop stop-color="#ff1000" offset="1"/>
		</radialGradient>
	</defs>
	<!-- Set display:none to hide FreeCAD Logo -->
	<g
		style="display:inline"
		id="freecad-logo"
		transform="translate(184, 272) scale(1)"
		fill-rule="evenodd"
		stroke-width=".45621">
		<path d="m0.22811 0.22835v13.256h2.9558v-5.1876h2.09v-2.0452h-2.09v-2.2075h5.1486v-3.8087l-8.1044-0.0075z"
			stroke="#370700"
			fill="url(#radialGradient3817)"/>
		<path d="m13.386 4.1792-1.7193 0.98645-0.75925-0.26348-0.72439-1.8513-1.1395 0.05988-0.51976 1.9144-0.72743 0.34835-1.8143-0.79367-0.76632 0.85156 0.98645 1.7193-0.26957 0.75702-1.8513 0.72439 0.065967 1.1417 1.9144 0.51976 0.34835 0.72743-0.79976 1.8121 0.85156 0.76632 1.7193-0.98645 0.76311 0.27179 0.7183 1.8491 1.1478-0.06375 0.51367-1.9166 0.72743-0.34835 1.8182 0.80198 0.76632-0.85156-0.98645-1.7193 0.2657-0.76533 1.8491-0.7183-0.05766-1.1456-1.9166-0.51367-0.34835-0.72743 0.7959-1.8204-0.85156-0.76632zm-2.5751 2.8195 0.35295 0.20478 0.30579 0.27725 0.24481 0.33087 0.17611 0.36787 0.10354 0.39656 0.01715 0.4064-0.0587 0.4063-0.13396 0.38571-0.2131 0.35681-0.26894 0.30192-0.33087 0.24481-0.36787 0.17611-0.39656 0.10354-0.40863 0.02325-0.4063-0.0587-0.38571-0.13396-0.35681-0.2131-0.2997-0.27503-0.24703-0.32478-0.17611-0.36787-0.10132-0.40264-0.02324-0.40863 0.05869-0.4063 0.13396-0.38571 0.21087-0.35072 0.27116-0.30801 0.33087-0.24481 0.36787-0.17611 0.40264-0.10132 0.40641-0.01715 0.4063 0.05869 0.38571 0.13396z" 
		stroke="#000137"
		fill="url(#radialGradient3661)"/>
	</g>
<g id="Ortho_0_0"
   transform="rotate(0,105,123.421) translate(105,123.421) scale(8,8)"
  >
<g   fill="none"
   stroke="rgb(0, 0, 0)"
   stroke-dasharray="0.2,0.1)"
   stroke-linecap="butt"
   stroke-linejoin="miter"
   stroke-width="0.018750"
   transform="scale(1,-1)"
  >
<path id= "1" d=" M -10.0373 -2.77283 L -3.302 -11.4403 " />
<path id= "2" d=" M -3.302 -11.4403 L -3.302 -3.42191 " />
<path id= "3" d=" M -5.3856 -3.23004e-027 L -3.302 -3.42191 " />
<path d="M-5.3856 -1.08266e-015 A5.8938 5.3856 90 0 0 -3.302 4.65606" />
<path id= "5" d=" M -3.302 4.65606 L -3.302 9.9694 " />
<path id= "6" d=" M -4.445 9.9694 L -3.302 9.9694 " />
<path id= "7" d=" M -10.0373 2.77283 L -4.445 9.9694 " />
<path id= "8" d=" M -10.0373 -2.7728 L -10.0373 -1.11699 " />
<path id= "9" d=" M -10.0373 1.11699 L -10.0373 2.7728 " />
<path d="M-3.302,-11.4403 C-3.25632,-11.3921 -3.19758,-11.3561 -3.12578,-11.3324  C-3.06061,-11.3129 -2.9814,-11.3172 -2.91162,-11.3436  C-2.74715,-11.4079 -2.63569,-11.5345 -2.54,-11.654 " /><path d="M-2.54,-11.654 L-1.94403,-12.4209 " /><path d="M-1.94403,-12.4209 L-1.2533,-12.4209 " /><path id= "13" d=" M -1.2533 -12.4209 L -10.0373 -1.11702 " />
<path d="M-3.302,-3.42191 C-3.08401,-3.77991 -2.81264,-4.22559 -2.54,-4.67334 " /><path id= "15" d=" M -5.3856 -3.23004e-027 L -2.54 -4.67334 " />
<path d="M-3.302,4.65606 C-3.10514,4.82353 -2.84765,5.01721 -2.54,5.19714 " /><path d="M-5.3856 -1.08266e-015 A5.8938 5.3856 90 0 0 -2.54 5.19714" />
<path d="M-3.302,9.9694 Q-3.14851,9.9694 -2.93479,9.9694  Q-2.72574,9.9694 -2.54,9.9694 " /><path d="M-4.445,9.9694 L-3.1583,9.9694 " /><path id= "20" d=" M -3.1583 9.9694 L 3.1583 9.9694 " />
<path d="M4.445,9.9694 L3.1583,9.9694 " /><path id= "22" d=" M 3.302 9.9694 L 4.445 9.9694 " />
<path d="M2.54,9.9694 Q2.72578,9.9694 2.93484,9.9694  Q3.14854,9.9694 3.302,9.9694 " /><path d="M2.54,9.9694 L-2.54,9.9694 " /><path id= "25" d=" M -10.0373 1.11702 L -3.1583 9.9694 " />
<path d="M-1.94403,-12.4209 L1.94403,-12.4209 " /><path d="M1.94403,-12.4209 L2.54,-11.654 " /><path id= "28" d=" M 2.07351 -5.43946 L 2.54 -4.67334 " />
<path id= "29" d=" M -2.07351 -5.43946 L 2.07351 -5.43946 " />
<path id= "30" d=" M -2.54 -4.67334 L -2.07351 -5.43946 " />
<path d="M1.94403,-12.4209 L1.2533,-12.4209 " /><path id= "32" d=" M 1.2533 -12.4209 L -1.2533 -12.4209 " />
<path id= "33" d=" M -1.2533 -12.4209 L -10.0373 -1.11699 " />
<path id= "34" d=" M -2.54 4.83924 L -2.54 5.19714 " />
<path d="M-5.13506,-8.10463e-015 Q-5.13506,0.222561 -5.11867,0.4445 " /><path d="M-4.86123,-0.4445 L-5.13506,-2.498e-016 " /><path id= "37" d=" M -2.54 -4.67334 L -2.54 -4.21244 " />
<path d="M-2.54 5.19714 A5.8938 5.3856 90 0 0 2.54 5.19714" />
<path id= "39" d=" M -3.1583 9.9694 L 3.1583 9.9694 " />
<path id= "40" d=" M 4.445 9.9694 L 10.0373 2.77283 " />
<path id= "41" d=" M 3.1583 9.9694 L 10.0373 1.11702 " />
<path id= "42" d=" M 3.302 4.65606 L 3.302 9.9694 " />
<path d="M3.302 4.65606 A5.8938 5.3856 90 0 0 5.3856 3.6088e-016" />
<path id= "44" d=" M 3.302 -3.42191 L 5.3856 0 " />
<path id= "45" d=" M 3.302 -11.4403 L 3.302 -3.42191 " />
<path id= "46" d=" M 3.302 -11.4403 L 10.0373 -2.77283 " />
<path id= "47" d=" M 10.0373 2.7728 L 10.0373 1.11699 " />
<path id= "48" d=" M 10.0373 -1.11699 L 10.0373 -2.7728 " />
<path d="M3.302,4.65606 C3.10514,4.82353 2.84765,5.01721 2.54,5.19714 " /><path id= "50" d=" M -10.0373 1.11699 L -3.1583 9.9694 " />
<path id= "51" d=" M -10.0373 -1.11699 L -10.0373 1.11699 " />
<path id= "52" d=" M 10.0373 -1.11702 L 1.2533 -12.4209 " />
<path d="M3.302,-11.4403 C3.25632,-11.3921 3.19758,-11.3561 3.12578,-11.3324  C3.06061,-11.3129 2.9814,-11.3172 2.91162,-11.3436  C2.74715,-11.4079 2.63569,-11.5345 2.54,-11.654 " /><path d="M2.54,-4.67334 C2.81264,-4.22559 3.08401,-3.77991 3.302,-3.42191 " /><path id= "55" d=" M 2.54 -4.67334 L 2.54 -4.21244 " />
<path d="M0.4445,-5.14332 L-0.4445,-5.14332 " /><path id= "57" d=" M 1.2533 -12.4209 L -1.2533 -12.4209 " />
<path d="M-10.0373,-1.11699 L-10.0373,-2.77283 " /><path d="M-1.2533,-12.4209 L-2.54,-12.4209 " /><path d="M-0.4445,5.54722 Q6.81234e-006,5.58901 0.4445,5.54722 " /><path id= "61" d=" M 2.54 4.83924 L 2.54 5.19714 " />
<path d="M6.07662,0.4445 L5.35819,0.4445 " /><path d="M5.35819,0.4445 Q5.37412,0.222542 5.37412,-2.22045e-016 " /><path d="M5.37412,2.08983e-016 L5.13506,1.04492e-016 " /><path d="M5.11867,0.4445 Q5.13506,0.222561 5.13506,4.44089e-016 " /><path d="M-5.37412,-1.37066e-023 L-5.13506,-1.60588e-023 " /><path d="M-5.37412,-8.32667e-015 Q-5.37412,0.222542 -5.35819,0.4445 " /><path d="M-6.07662,0.4445 L-5.35819,0.4445 " /><path d="M-0.4445,6.3915 L-0.4445,5.75844 " /><path d="M-0.4445,5.75844 Q-6.52378e-006,5.79803 0.4445,5.75844 " /><path d="M0.4445,6.3915 L0.4445,5.75844 " /><path d="M-5.80688,-0.4445 L-5.09734,-0.4445 " /><path d="M-5.09734,-0.4445 L-5.37412,3.33067e-016 " /><path id= "74" d=" M 3.1583 9.9694 L 10.0373 1.11699 " />
<path d="M3.1583,9.9694 L4.445,9.9694 " /><path d="M-3.1583,9.9694 L-4.445,9.9694 " /><path d="M2.54 5.19714 A5.8938 5.3856 90 0 0 5.3856 3.6088e-016" />
<path id= "78" d=" M 2.54 -4.67334 L 5.3856 0 " />
<path d="M-10.0373,1.11699 L-10.0373,2.77283 " /><path id= "80" d=" M 10.0373 -1.11699 L 1.2533 -12.4209 " />
<path d="M5.13506,-2.77556e-016 L4.86123,-0.4445 " /><path d="M5.37412,3.33067e-016 L5.09734,-0.4445 " /><path d="M5.80688,-0.4445 L5.09734,-0.4445 " /><path d="M0.4445,-5.93674 L0.4445,-5.34168 " /><path d="M0.4445,-5.34168 L-0.4445,-5.34168 " /><path d="M-0.4445,-5.93674 L-0.4445,-5.34168 " /><path id= "87" d=" M -0.762 -12.4209 L 0.762 -12.4209 " />
<path d="M1.2533,-12.4209 L2.54,-12.4209 " /><circle cx ="0" cy ="-11.3284" r ="0.762" /><path id= "90" d=" M 3.62848 0.4445 L 5.35819 0.4445 " />
<path id= "91" d=" M -2.72152 0.4445 L -0.453481 0.4445 " />
<path d="M-0.4445 0.453481 A0.635 0.635 0 0 1 -0.453481 0.4445" /><path id= "93" d=" M -0.4445 0.453481 L -0.4445 2.72152 " />
<path d="M-0.4445 3.62848 A0.635 0.635 0 0 1 -0.4445 2.72152" /><path id= "95" d=" M -0.4445 3.62848 L -0.4445 5.75844 " />
<path id= "96" d=" M 0.4445 5.75844 L 0.4445 3.62848 " />
<path d="M0.4445 2.72152 A0.635 0.635 0 0 1 0.4445 3.62848" /><path id= "98" d=" M 0.4445 0.453481 L 0.4445 2.72152 " />
<path d="M0.453481 0.4445 A0.635 0.635 0 0 1 0.4445 0.453481" /><path id= "100" d=" M 0.453481 0.4445 L 2.72152 0.4445 " />
<path d="M3.62848 0.4445 A0.635 0.635 0 0 1 2.72152 0.4445" /><path id= "102" d=" M 5.09734 -0.4445 L 3.62848 -0.4445 " />
<path d="M2.72152 -0.4445 A0.635 0.635 0 0 1 3.62848 -0.4445" /><path id= "104" d=" M 0.453481 -0.4445 L 2.72152 -0.4445 " />
<path d="M0.4445 -0.453481 A0.635 0.635 0 0 1 0.453481 -0.4445" /><path id= "106" d=" M 0.4445 -2.72152 L 0.4445 -0.453481 " />
<path d="M0.4445 -3.62848 A0.635 0.635 0 0 1 0.4445 -2.72152" /><path id= "108" d=" M 0.4445 -5.34168 L 0.4445 -3.62848 " />
<path id= "109" d=" M -0.4445 -3.62848 L -0.4445 -5.34168 " />
<path d="M-0.4445 -2.72152 A0.635 0.635 0 0 1 -0.4445 -3.62848" /><path id= "111" d=" M -0.4445 -0.453481 L -0.4445 -2.72152 " />
<path d="M-0.453481 -0.4445 A0.635 0.635 0 0 1 -0.4445 -0.453481" /><path id= "113" d=" M -2.72152 -0.4445 L -0.453481 -0.4445 " />
<path d="M-3.62848 -0.4445 A0.635 0.635 0 0 1 -2.72152 -0.4445" /><path id= "115" d=" M -5.09734 -0.4445 L -3.62848 -0.4445 " />
<path id= "116" d=" M -3.62848 0.4445 L -5.35819 0.4445 " />
<path d="M-2.72152 0.4445 A0.635 0.635 0 0 1 -3.62848 0.4445" /><path id= "118" d=" M 10.0373 1.11699 L 10.0373 -1.11699 " />
<path d="M10.0373,1.11699 L10.0373,2.77283 " /><path d="M10.0373,-1.11699 L10.0373,-2.77283 " /><path d="M0.762,-11.329 C0.762179,-11.5161 0.691409,-11.7108 0.545349,-11.8606  C0.41352,-11.9982 0.211551,-12.0915 0.000602793,-12.0904  C-0.208837,-12.0918 -0.409768,-12.0001 -0.541775,-11.8642  C-0.690385,-11.7139 -0.762344,-11.5172 -0.762,-11.3284 " /><path d="M-0.762,-11.3284 C-0.761433,-11.4876 -0.71493,-11.6341 -0.62249,-11.7679  C-0.563062,-11.8533 -0.485086,-11.9253 -0.388562,-11.9839  C-0.278928,-12.0495 -0.142349,-12.0904 -0.00193185,-12.0904  C0.138801,-12.0912 0.276065,-12.0506 0.386244,-11.9853  C0.483001,-11.927 0.561239,-11.8552 0.620957,-11.7701  C0.705209,-11.6494 0.751765,-11.5175 0.760625,-11.3742 " /><path d="M0.762 -15.4771 A0.762 0.762 0 1 0 -0.762 -15.4771" /><path d="M-0.762 -15.4771 A0.762 0.762 0 0 0 0.762 -15.4771" /></g>
<g   fill="none"
   stroke="rgb(0, 0, 0)"
   stroke-linecap="butt"
   stroke-linejoin="miter"
   stroke-width="0.043750"
   transform="scale(1,-1)"
  >
<path d="M-0.762,-11.3284 C-0.762,-12.4051 -0.762,-13.4745 -0.762,-14.2388  C-0.762,-15.0249 -0.762,-15.4816 -0.762,-15.4771 " /></g>
<g   fill="none"
   stroke="rgb(0, 0, 0)"
   stroke-linecap="butt"
   stroke-linejoin="miter"
   stroke-width="0.043750"
   transform="scale(1,-1)"
  >
<path id= "1" d=" M -10.0373 -2.7728 L -10.0373 -2.77283 " />
<path id= "2" d=" M -10.0373 2.7728 L -10.0373 2.77283 " />
<path id= "3" d=" M -10.0373 -1.11699 L -10.0373 1.11699 " />
<path id= "4" d=" M -10.0373 -1.11702 L -10.0373 -1.11699 " />
<path d="M-10.0373,-2.7728 L-10.0373,-1.11699 " /><path id= "6" d=" M -10.0373 1.11699 L -10.0373 1.11702 " />
<path d="M-10.0373,2.7728 L-10.0373,1.11699 " /><path id= "8" d=" M -10.0373 -1.11699 L -10.0373 1.11699 " />
<path d="M-5.11867,0.4445 C-5.05289,1.34218 -4.78315,2.22519 -4.32701,2.9983  C-3.88814,3.74469 -3.27373,4.3873 -2.54,4.83924 " /><path d="M-2.54,-4.21244 L-4.86123,-0.4445 " /><path id= "11" d=" M 10.0373 2.77283 L 10.0373 2.7728 " />
<path d="M10.0373,2.7728 L10.0373,1.11699 " /><path id= "13" d=" M 10.0373 1.11702 L 10.0373 1.11699 " />
<path id= "14" d=" M 10.0373 -2.77283 L 10.0373 -2.7728 " />
<path id= "15" d=" M 10.0373 1.11699 L 10.0373 -1.11699 " />
<path d="M10.0373,-2.7728 L10.0373,-1.11699 " /><path id= "17" d=" M 10.0373 -1.11699 L 10.0373 -1.11702 " />
<path d="M2.54,-4.21244 L1.96653,-5.14332 " /><path d="M1.96653,-5.14332 L0.4445,-5.14332 " /><path d="M-0.4445,-5.14332 L-1.96653,-5.14332 " /><path d="M-1.96653,-5.14332 L-2.54,-4.21244 " /><path id= "22" d=" M -10.0373 -2.77283 L -2.54 -12.4209 " />
<path d="M-2.54,4.83924 C-1.90628,5.2313 -1.18449,5.47828 -0.4445,5.54722 " /><path d="M0.4445,5.54722 C1.18448,5.47828 1.90626,5.23131 2.54,4.83924 " /><path d="M6.928,8.88178e-016 L6.09129,5.22458e-016 " /><path d="M6.07662,0.4445 Q6.09129,0.222493 6.09129,-2.33147e-015 " /><path d="M2.54,4.83924 C3.27373,4.3873 3.88814,3.74469 4.32701,2.9983  C4.78315,2.22519 5.05289,1.34218 5.11867,0.4445 " /><path d="M-6.09129,-9.10383e-015 Q-6.09129,0.222493 -6.07662,0.4445 " /><path d="M-6.928,1.58229e-024 L-6.09129,-6.6502e-024 " /><path d="M6.928 -1.2991e-015 A7.144 6.928 90 0 1 -6.928 2.17399e-015" />
<path d="M-0.4445,6.3915 Q-5.62127e-006,6.42567 0.4445,6.3915 " /><path d="M-5.80688,-0.4445 L-6.09129,3.33067e-016 " /><path d="M-2.57795,-6.63099 L-1.96653,-5.14332 " /><path id= "34" d=" M -6.928 1.58229e-024 L -2.57795 -6.63099 " />
<path id= "35" d=" M -4.445 9.9694 L 4.445 9.9694 " />
<path id= "36" d=" M 10.0373 1.11699 L 10.0373 -1.11699 " />
<path id= "37" d=" M -10.0373 2.77283 L -4.445 9.9694 " />
<path id= "38" d=" M -10.0373 -2.77283 L -10.0373 2.77283 " />
<path d="M4.86123,-0.4445 L2.54,-4.21244 " /><path d="M2.57795,-6.63099 L1.96653,-5.14332 " /><path d="M6.09129,1.22125e-015 L5.80688,-0.4445 " /><path id= "42" d=" M 2.57795 -6.63099 L 6.928 8.88178e-016 " />
<path id= "43" d=" M -2.57795 -6.63099 L 2.57795 -6.63099 " />
<path d="M0.4445,-5.93674 L-0.4445,-5.93674 " /><path id= "45" d=" M -2.54 -12.4209 L -0.762 -12.4209 " />
<path id= "46" d=" M 0.762 -12.4209 L 2.54 -12.4209 " />
<path id= "47" d=" M 2.54 -12.4209 L 10.0373 -2.77283 " />
<path id= "48" d=" M 4.445 9.9694 L 10.0373 2.77283 " />
<path id= "49" d=" M 10.0373 2.77283 L 10.0373 -2.77283 " />
<path id= "50" d=" M -2.72152 0.4445 L -0.453481 0.4445 " />
<path d="M-0.4445 0.453481 A0.635 0.635 0 0 1 -0.453481 0.4445" /><path id= "52" d=" M -0.4445 0.453481 L -0.4445 2.72152 " />
<path d="M-0.4445 3.62848 A0.635 0.635 0 0 1 -0.4445 2.72152" /><path id= "54" d=" M -0.4445 3.62848 L -0.4445 6.3915 " />
<path id= "55" d=" M 0.4445 6.3915 L 0.4445 3.62848 " />
<path d="M0.4445 2.72152 A0.635 0.635 0 0 1 0.4445 3.62848" /><path id= "57" d=" M 0.4445 0.453481 L 0.4445 2.72152 " />
<path d="M0.453481 0.4445 A0.635 0.635 0 0 1 0.4445 0.453481" /><path id= "59" d=" M 0.453481 0.4445 L 2.72152 0.4445 " />
<path d="M3.62848 0.4445 A0.635 0.635 0 0 1 2.72152 0.4445" /><path id= "61" d=" M 3.62848 0.4445 L 6.07662 0.4445 " />
<path id= "62" d=" M 5.80688 -0.4445 L 3.62848 -0.4445 " />
<path d="M2.72152 -0.4445 A0.635 0.635 0 0 1 3.62848 -0.4445" /><path id= "64" d=" M 0.453481 -0.4445 L 2.72152 -0.4445 " />
<path d="M0.4445 -0.453481 A0.635 0.635 0 0 1 0.453481 -0.4445" /><path id= "66" d=" M 0.4445 -2.72152 L 0.4445 -0.453481 " />
<path d="M0.4445 -3.62848 A0.635 0.635 0 0 1 0.4445 -2.72152" /><path id= "68" d=" M 0.4445 -5.93674 L 0.4445 -3.62848 " />
<path id= "69" d=" M -0.4445 -3.62848 L -0.4445 -5.93674 " />
<path d="M-0.4445 -2.72152 A0.635 0.635 0 0 1 -0.4445 -3.62848" /><path id= "71" d=" M -0.4445 -0.453481 L -0.4445 -2.72152 " />
<path d="M-0.453481 -0.4445 A0.635 0.635 0 0 1 -0.4445 -0.453481" /><path id= "73" d=" M -2.72152 -0.4445 L -0.453481 -0.4445 " />
<path d="M-3.62848 -0.4445 A0.635 0.635 0 0 1 -2.72152 -0.4445" /><path id= "75" d=" M -5.80688 -0.4445 L -3.62848 -0.4445 " />
<path id= "76" d=" M -3.62848 0.4445 L -6.07662 0.4445 " />
<path d="M-2.72152 0.4445 A0.635 0.635 0 0 1 -3.62848 0.4445" /><circle cx ="0" cy ="-11.3284" r ="0.762" /><path d="M0.762,-11.3284 L0.762,-11.329 " /><path d="M0.760625,-11.3742 L0.762,-11.3284 " /><path d="M0.762,-15.4771 Q0.762,-15.464 0.762,-15.451  Q0.762,-15.412 0.762,-15.3731  Q0.762,-15.3087 0.762,-15.2443  Q0.762,-15.1552 0.762,-15.0662  Q0.762,-14.9537 0.762,-14.8412  Q0.762,-14.7066 0.762,-14.572  Q0.762,-14.417 0.762,-14.262  Q0.762,-14.0885 0.762,-13.9151  Q0.762,-13.7253 0.762,-13.5356  Q0.762,-13.332 0.762,-13.1284  Q0.762,-12.9135 0.762,-12.6986  Q0.762,-12.4751 0.762,-12.2516  Q0.762,-11.7945 0.762,-11.3284 " /><circle cx ="-1.97102e-025" cy ="-15.4771" r ="0.762" /></g>
</g>



<g> 
  <line x1="99.444000" y1="79.043240" x2="8.963493" y2="79.043240" style="stroke:rgb(0,0,255);stroke-width:0.50" />
<line x1="87.267760" y1="164.567560" x2="8.963493" y2="164.567560" style="stroke:rgb(0,0,255);stroke-width:0.50" />
<line x1="9.963493" y1="79.043240" x2="9.963493" y2="164.567560" style="stroke:rgb(0,0,255);stroke-width:0.50" /> 
  <polygon points="9.963493,164.567560 10.963493,161.567560 9.963493,160.567560 8.963493,161.567560" style="fill:rgb(0,0,255);stroke:rgb(0,0,255);stroke-width:0" /><polygon points="9.963493,79.043240 8.963493,82.043240 9.963493,83.043240 10.963493,82.043240" style="fill:rgb(0,0,255);stroke:rgb(0,0,255);stroke-width:0" /> 
  <text x="7.963493" y="121.805400" font-family="inherit" font-size="8" fill="rgb(0,0,255)" text-anchor="middle" transform="rotate(-90.000000 7.963493,121.805400)" >10.691</text> </g>


<g> 
  <line x1="99.444000" y1="79.043240" x2="21.370861" y2="79.043240" style="stroke:rgb(0,0,255);stroke-width:0.50" />
<line x1="103.000000" y1="123.421000" x2="21.370861" y2="123.421000" style="stroke:rgb(0,0,255);stroke-width:0.50" />
<line x1="22.370861" y1="79.043240" x2="22.370861" y2="123.421000" style="stroke:rgb(0,0,255);stroke-width:0.50" /> 
  <polygon points="22.370861,123.421000 23.370861,120.421000 22.370861,119.421000 21.370861,120.421000" style="fill:rgb(0,0,255);stroke:rgb(0,0,255);stroke-width:0" /><polygon points="22.370861,79.043240 21.370861,82.043240 22.370861,83.043240 23.370861,82.043240" style="fill:rgb(0,0,255);stroke:rgb(0,0,255);stroke-width:0" /> 
  <text x="20.370861" y="101.232120" font-family="inherit" font-size="8" fill="rgb(0,0,255)" text-anchor="middle" transform="rotate(-90.000000 20.370861,101.232120)" >5.547</text> </g>


<g> 
  <line x1="103.000000" y1="123.421000" x2="21.370861" y2="123.421000" style="stroke:rgb(0,0,255);stroke-width:0.50" />
<line x1="87.267760" y1="164.567560" x2="21.370861" y2="164.567560" style="stroke:rgb(0,0,255);stroke-width:0.50" />
<line x1="22.370861" y1="123.421000" x2="22.370861" y2="164.567560" style="stroke:rgb(0,0,255);stroke-width:0.50" /> 
  <polygon points="22.370861,164.567560 23.370861,161.567560 22.370861,160.567560 21.370861,161.567560" style="fill:rgb(0,0,255);stroke:rgb(0,0,255);stroke-width:0" /><polygon points="22.370861,123.421000 21.370861,126.421000 22.370861,127.421000 23.370861,126.421000" style="fill:rgb(0,0,255);stroke:rgb(0,0,255);stroke-width:0" /> 
  <text x="20.370861" y="143.994280" font-family="inherit" font-size="8" fill="rgb(0,0,255)" text-anchor="middle" transform="rotate(-90.000000 20.370861,143.994280)" >5.143</text> </g>


<g> 
  <line x1="24.701600" y1="99.238600" x2="24.701600" y2="9.942116" style="stroke:rgb(0,0,255);stroke-width:0.50" />
<line x1="185.298400" y1="99.238600" x2="185.298400" y2="9.942116" style="stroke:rgb(0,0,255);stroke-width:0.50" />
<line x1="24.701600" y1="10.942116" x2="185.298400" y2="10.942116" style="stroke:rgb(0,0,255);stroke-width:0.50" /> 
  <polygon points="185.298400,10.942116 182.298400,9.942116 181.298400,10.942116 182.298400,11.942116" style="fill:rgb(0,0,255);stroke:rgb(0,0,255);stroke-width:0" /><polygon points="24.701600,10.942116 27.701600,11.942116 28.701600,10.942116 27.701600,9.942116" style="fill:rgb(0,0,255);stroke:rgb(0,0,255);stroke-width:0" /> 
  <text x="105.000000" y="8.942116" font-family="inherit" font-size="8" fill="rgb(0,0,255)" text-anchor="middle" transform="rotate(0.000000 105.000000,8.942116)" >20.075</text> </g>


<g> 
  <line x1="63.919520" y1="121.421000" x2="63.919520" y2="21.550755" style="stroke:rgb(0,0,255);stroke-width:0.50" />
<line x1="146.080480" y1="121.421000" x2="146.080480" y2="21.550755" style="stroke:rgb(0,0,255);stroke-width:0.50" />
<line x1="63.919520" y1="22.550755" x2="146.080480" y2="22.550755" style="stroke:rgb(0,0,255);stroke-width:0.50" /> 
  <polygon points="146.080480,22.550755 143.080480,21.550755 142.080480,22.550755 143.080480,23.550755" style="fill:rgb(0,0,255);stroke:rgb(0,0,255);stroke-width:0" /><polygon points="63.919520,22.550755 66.919520,23.550755 67.919520,22.550755 66.919520,21.550755" style="fill:rgb(0,0,255);stroke:rgb(0,0,255);stroke-width:0" /> 
  <text x="105.000000" y="20.550755" font-family="inherit" font-size="8" fill="rgb(0,0,255)" text-anchor="middle" transform="rotate(0.000000 105.000000,20.550755)" >10.27</text> </g>


<g> <text x="88.871182" y="285.828938" font-family="inherit" font-size="10" fill="rgb(0,0,0)" text-anchor="inherit" transform="rotate(0.000000 88.871182,285.828938)" >Dimensions in mm</text> </g>


<g> <text x="5.284232" y="291.593555" font-family="inherit" font-size="5" fill="rgb(0,0,0)" text-anchor="inherit" transform="rotate(0.000000 5.284232,291.593555)" >v3.4</text> </g>


</svg>

