<?xml version="1.0" encoding="UTF-8" standalone="no"?>

<svg
	xmlns="http://www.w3.org/2000/svg" version="1.1"
	xmlns:freecad="http://www.freecadweb.org/wiki/index.php?title=Svg_Namespace"
	width="420mm"
	height="297mm"
	viewBox="0 0 420 297">
	<!-- Working space 20 10 410 287 -->
	<!-- Title block 230 227 410 287 -->
	<g>
		<rect
			id="drawing-border"
			style="fill:none;stroke:#000000;stroke-width:0.35;stroke-linecap:miter;stroke-miterlimit:4"
			width="390"
			height="277"
			x="20"
			y="10" />
			<!-- width-30, height-20 -->
		<g
			transform="translate(210,0)">
			<!-- A4 Portrait based for other formats width-210, height-297 -->
			<!--        page       rect   translation
			               w    h    rw   rh   tx   ty
			        A4-P  210  297  180  277    0    0
			        A3-L  420  297  390  277  210    0
			        A2-L  594  420  564  400  384  123
			        A1-L  841  594  811  574  631  297
			        A0-L 1189  841 1159  821  979  544
			-->
			<g
				id="titleblock-structure"
				style="fill:none;stroke:#000000;stroke-width:0.35;stroke-linecap:miter;stroke-miterlimit:4">
				<rect width="180" height="60" x="20" y="227" />
				<path d="m 20,239 h 180" />
				<path d="m 80,227 v 12" />
				<path d="m 140,239 v 48" />
				<path d="m 160,239 v 12" />
				<path d="m 180,239 v 12" />
				<path d="m 140,251 h 60" />
				<path d="m 140,275 h 60" />
				<path d="m 180,275 v 12" />
			</g>
			<g
				id="titleblock-text-non-editable"
				style="font-size:3px;text-anchor:start;fill:#000000;font-family:osifont"
				xml:space="preserve">
				<text x="21" y="230">Created by:</text>
				<text x="81" y="230">Title:</text>
				<text x="21" y="242">Supplementary information:</text>
				<text x="141" y="242">Size:</text>
				<text x="161" y="242">Sheet:</text>
				<text x="181" y="242">Scale:</text>
				<text x="141" y="254">Part number:</text>
				<text x="141" y="266">Drawing number:</text>
				<text x="141" y="278">Date:</text>
				<text x="181" y="278">Revision:</text>
			</g>
			<g
				id="titleblock-text-editable"
				style="font-size:5px;text-anchor:middle;fill:#000000;font-family:osifont"
				xml:space="preserve">
				<text freecad:editable="AUTHOR NAME" x="50" y="236"><tspan>Brian Kardon</tspan></text>
				<text freecad:editable="DRAWING TITLE" x="140" y="236"><tspan>Stereotax headplate full mount</tspan></text>
				<text freecad:editable="SI-1" x="80" y="248"><tspan></tspan></text>
				<text freecad:editable="SI-2" x="80" y="255"><tspan></tspan></text>
				<text freecad:editable="FreeCAD DRAWING" x="80" y="262"><tspan></tspan></text>
				<text freecad:editable="SI-4" x="80" y="269"><tspan></tspan></text>
				<text freecad:editable="SI-5" x="80" y="276"><tspan></tspan></text>
				<text freecad:editable="SI-6" x="80" y="283"><tspan></tspan></text>
				<text freecad:editable="FC-SI" x="150" y="248"><tspan>A3</tspan></text>
				<text freecad:editable="FC-SH" x="170" y="248"><tspan>1 / 1</tspan></text>
				<text freecad:editable="FC-SC" x="190" y="248"><tspan>1:1</tspan></text>
				<text freecad:editable="PN" x="170" y="260"><tspan>1/1</tspan></text>
				<text freecad:editable="DN" x="170" y="272"><tspan>1/1</tspan></text>
				<text freecad:editable="FC-DATE" x="160" y="284"><tspan>11/21/19</tspan></text>
				<text freecad:editable="FC-REV" x="190" y="284"><tspan>v1</tspan></text>
			</g>
			<!-- Set display:none to hide FreeCAD Logo -->
			<g
				style="display:inline"
				id="freecad-logo"
				transform="translate(128.5,276)"
				fill-rule="evenodd"
				stroke="#000"
				stroke-width="0.35"
				fill="none">
					<path d="m0.1524 0.15254v8.8549h1.9744v-3.4652h1.396v-1.3661h-1.396v-1.4745h3.4391v-2.5441l-5.4135-0.005z"/>
					<path d="m7.7927 3.4504-0.50715-0.176-0.48387-1.2366-0.76115 0.04-0.34718 1.2787-0.4859 0.23269-1.2119-0.53015-0.51188 0.56882 0.65892 1.1485-0.18006 0.50567-1.2366 0.48387 0.044064 0.76263 1.2787 0.34718 0.23269 0.4859-0.53421 1.2104 0.56882 0.51188 1.1485-0.65891 0.50973 0.18155 0.4798 1.2351 0.7667-0.04258 0.34311-1.2802 0.4859-0.23269 1.2145 0.5357 0.51188-0.56882-0.65891-1.1485 0.17748-0.51122 1.2351-0.4798-0.03851-0.76521-1.2802-0.34311-0.23269-0.4859 0.53163-1.216-0.56881-0.51184zm-0.5715 1.2244 0.23576 0.13679 0.20426 0.18519 0.16353 0.22101 0.11763 0.24572 0.06916 0.26489 0.01146 0.27146-0.03921 0.27139-0.08948 0.25764-0.14234 0.23834-0.17964 0.20167-0.22101 0.16353-0.24572 0.11763-0.26489 0.06916-0.27295 0.01553-0.2719-0.04-0.2576-0.089-0.2383-0.143-0.2002-0.183-0.165-0.217-0.1177-0.246-0.0676-0.269-0.0156-0.273 0.039206-0.2714 0.089484-0.25764 0.14085-0.23427 0.18113-0.20574 0.22101-0.16352 0.24572-0.11763 0.26895-0.06768 0.27147-0.01146 0.27139 0.03921 0.25764 0.08948z"/>
			</g>
		</g>
	</g>
<g id="Ortho_0_0"
   transform="rotate(-90,160,200) translate(160,200) scale(1,1)"
  >
<g   fill="none"
   stroke="rgb(0, 0, 0)"
   stroke-linecap="butt"
   stroke-linejoin="miter"
   stroke-width="0.350000"
   transform="scale(1,-1)"
  >
<path id= "1" d=" M 164.692 17.7917 L 37.6922 17.5976 " />
<path id= "2" d=" M 164.704 9.85422 L 37.7043 9.66006 " />
</g>
<g   fill="none"
   stroke="rgb(0, 0, 0)"
   stroke-linecap="butt"
   stroke-linejoin="miter"
   stroke-width="0.350000"
   transform="scale(1,-1)"
  >
<path d="M164.706 12.6195 A3.96875 0.00604891 -89.9124 0 1 164.692 17.7917" />
<path d="M37.6922 17.5975 A3.96875 0.00604891 -89.9124 0 1 37.6922 17.5976" />
<path d="M37.6922 17.5976 A3.96875 0.00604891 -89.9124 0 1 37.7043 9.66006" />
<path d="M164.692 17.7917 A3.96875 0.00604891 -89.9124 0 1 164.692 17.7917" />
<path d="M164.692 17.7917 A3.96875 0.00604891 -89.9124 0 1 164.704 9.85422" />
<path d="M164.704 9.85422 A3.96875 0.00604891 -89.9124 0 1 164.706 10.066" />
<path id= "7" d=" M 164.719 12.606 L 164.7 12.6249 " />
<path id= "8" d=" M 164.7 12.6249 L 164.704 10.066 " />
<path id= "9" d=" M 164.719 10.066 L 164.704 10.066 " />
<path id= "10" d=" M 37.6998 18.0571 L 37.7005 17.5976 " />
<path id= "11" d=" M 37.6998 18.0571 L 37.6967 19.0762 " />
<path id= "12" d=" M 37.6967 19.0762 L 37.6944 19.0807 " />
<path d="M37.6944 19.0807 A0.889 0.00135496 90.0876 0 0 37.6944 18.1944" />
<path d="M37.6944 18.1944 A0.889 0.00135496 90.0876 0 0 37.6944 18.1944" />
<path d="M37.6944 18.1944 A0.889 0.00135496 90.0876 0 0 37.6917 19.0862" />
<path id= "16" d=" M 37.7126 9.66007 L 37.7134 9.16715 " />
<path id= "17" d=" M 37.6917 19.0862 L 37.6881 19.0934 " />
<path id= "18" d=" M 37.7134 9.16715 L 37.7133 8.15426 " />
<path d="M37.6881 19.0934 A0.889 0.00135496 90.0876 0 0 37.6881 18.2071" />
<path d="M37.6881 18.2071 A0.889 0.00135496 90.0876 0 0 37.6881 18.2071" />
<path id= "21" d=" M 37.7133 8.15426 L 37.7111 8.15878 " />
<path d="M37.6881 18.2071 A0.889 0.00135496 90.0876 0 0 37.6854 19.0988" />
<path d="M37.7084 8.16422 A0.889 0.00135496 90.0876 0 0 37.7084 9.0505" />
<path d="M37.7084 9.0505 A0.889 0.00135496 90.0876 0 0 37.7111 8.15878" />
<path id= "25" d=" M 37.6854 19.0988 L 37.6831 19.1034 " />
<path id= "26" d=" M 37.7084 8.16422 L 37.7047 8.17146 " />
<path id= "27" d=" M 37.6831 18.0905 L 37.6831 19.1034 " />
<path d="M37.702 8.17689 A0.889 0.00135496 90.0876 0 0 37.702 9.06317" />
<path d="M37.702 9.06317 A0.889 0.00135496 90.0876 0 0 37.7047 8.17146" />
<path id= "30" d=" M 37.6831 18.0905 L 37.6854 16.6088 " />
<path id= "31" d=" M 37.702 8.17689 L 37.6998 8.18142 " />
<path d="M37.6854 16.6088 A0.889 0.00135496 90.0876 0 0 37.6881 14.8308" />
<path d="M37.6881 14.8308 A0.889 0.00135496 90.0876 0 0 37.6881 14.8308" />
<path id= "34" d=" M 37.6998 8.18142 L 37.6967 9.20052 " />
<path id= "35" d=" M 37.6881 14.8308 L 37.6917 12.4602 " />
<path id= "36" d=" M 37.6944 10.6822 L 37.6967 9.20052 " />
<path d="M37.6917 12.4602 A0.889 0.00135496 90.0876 0 0 37.6944 10.6822" />
<path d="M37.6944 10.6822 A0.889 0.00135496 90.0876 0 0 37.6944 10.6822" />
<path id= "39" d=" M 164.719 12.606 L 164.719 10.066 " />
<path id= "40" d=" M 37.6944 19.0807 L 37.6917 19.0807 " />
<path id= "41" d=" M 37.6881 19.0934 L 37.6854 19.0934 " />
<path id= "42" d=" M 37.7133 8.15426 L 18.6634 8.12513 " />
<path id= "43" d=" M 18.6634 8.12513 L 18.6611 8.12966 " />
<path id= "44" d=" M 37.7111 8.15878 L 18.6611 8.12966 " />
<path d="M18.6611 8.1351 A0.889 0.00135496 90.0876 0 0 18.6611 8.12966" />
<path id= "46" d=" M 37.7084 8.16422 L 18.6584 8.13509 " />
<path id= "47" d=" M 18.6332 19.0742 L 37.6831 19.1034 " />
<path id= "48" d=" M 18.6584 8.13509 L 18.6548 8.14234 " />
<path id= "49" d=" M 37.7047 8.17146 L 18.6548 8.14234 " />
<path id= "50" d=" M 18.6331 18.0613 L 18.6332 19.0742 " />
<path id= "51" d=" M 18.6331 18.0613 L 37.6831 18.0905 " />
<path d="M18.6548 8.14777 A0.889 0.00135496 90.0876 0 0 18.6548 8.14234" />
<path id= "53" d=" M 37.702 8.17689 L 18.6521 8.14777 " />
<path id= "54" d=" M 37.6854 16.6088 L 18.6354 16.5797 " />
<path id= "55" d=" M 18.6354 16.5797 L 18.6331 18.0613 " />
<path id= "56" d=" M 18.6521 8.14777 L 18.6498 8.15229 " />
<path id= "57" d=" M 37.6998 8.18142 L 18.6498 8.15229 " />
<path id= "58" d=" M 18.6381 14.8017 L 37.6881 14.8308 " />
<path d="M18.6354 16.5797 A0.889 0.00135496 90.0876 0 0 18.6381 14.8017" />
<path id= "60" d=" M 37.6967 9.20052 L 18.6467 9.17139 " />
<path id= "61" d=" M 18.6498 8.15229 L 18.6467 9.17139 " />
<path id= "62" d=" M 18.6417 12.431 L 18.6381 14.8017 " />
<path id= "63" d=" M 37.6917 12.4602 L 18.6417 12.431 " />
<path id= "64" d=" M 18.6467 9.17139 L 18.6444 10.6531 " />
<path id= "65" d=" M 18.6444 10.6531 L 37.6944 10.6822 " />
<path d="M18.6417 12.431 A0.889 0.00135496 90.0876 0 0 18.6444 10.6531" />
</g>
</g>



<g id="Ortho_1_0"
   transform="rotate(-90,240,200) translate(240,200) scale(1,1)"
  >
<g   fill="none"
   stroke="rgb(0, 0, 0)"
   stroke-linecap="butt"
   stroke-linejoin="miter"
   stroke-width="0.350000"
   transform="scale(1,-1)"
  >
<path id= "1" d=" M 164.692 4.1783 L 37.7005 3.98475 " />
<path id= "2" d=" M 151.06 -3.77998 L 37.7126 -3.95274 " />
</g>
<g   fill="none"
   stroke="rgb(0, 0, 0)"
   stroke-linecap="butt"
   stroke-linejoin="miter"
   stroke-width="0.350000"
   transform="scale(1,-1)"
  >
<path d="M151.054,-1.15017 C151.054,-2.05535 151.054,-2.8309 151.054,-3.28472  C151.054,-3.57672 151.054,-3.73994 151.054,-3.77438 " /><path d="M151.054,-1.15016 L151.054,-1.15017 " /><path d="M153.594 -1.1354 A2595.99 3.96875 -179.913 0 0 151.054 -1.15016" />
<path d="M164.706 -1.06962 A2595.99 3.96875 -179.913 0 0 153.594 -1.1354" />
<path d="M164.692 4.1783 A3.96875 0.00606743 -89.9127 0 0 164.706 -1.06962" />
<path d="M151.054,-3.77438 C151.751,-4.44217 152.617,-5.24613 153.565,-6.16969 " /><path d="M153.565,-6.16969 L153.594,-6.20462 " /><path d="M151.054,-1.15016 C151.3,-1.86801 151.663,-2.48445 152.037,-3.05795  C152.53,-3.80411 153.059,-4.4803 153.594,-5.13433 " /><path id= "9" d=" M 153.594 -5.13433 L 153.594 -21.4313 " />
<path id= "10" d=" M 164.719 -21.4313 L 153.594 -21.4313 " />
<path id= "11" d=" M 164.719 -1.98673e-11 L 164.719 -21.4313 " />
<path id= "12" d=" M 164.719 -1.98896e-11 L 164.704 -1.9888e-11 " />
<circle cx ="159.179" cy ="-14.9974" r ="2.57969" /><path id= "14" d=" M 37.6998 -5.45857 L 37.7021 -5.45404 " />
<path d="M37.7021 -5.4486 A0.889 0.0013591 90.0873 0 1 37.7021 -5.45404" />
<path id= "16" d=" M 37.7048 -5.4486 L 37.7084 -5.44135 " />
<path d="M37.7084 -5.43592 A0.889 0.0013591 90.0873 0 1 37.7084 -5.44135" />
<path id= "18" d=" M 37.7111 -5.43591 L 37.7134 -5.43138 " />
<path id= "19" d=" M 37.7134 -5.43138 L 37.7133 -4.41228 " />
<path id= "20" d=" M 37.7133 -4.41228 L 37.7111 -2.93062 " />
<path d="M37.7084 -1.15264 A0.889 0.0013591 90.0873 0 1 37.7111 -2.93063" />
<path id= "22" d=" M 37.7084 -1.15264 L 37.7047 1.21802 " />
<path d="M37.702 2.99601 A0.889 0.0013591 90.0873 0 1 37.7047 1.21802" />
<path id= "24" d=" M 37.702 2.99601 L 37.6998 4.47767 " />
<path id= "25" d=" M 37.6998 4.47767 L 37.6967 5.49055 " />
<path id= "26" d=" M 18.6498 -5.4876 L 37.6998 -5.45857 " />
<path id= "27" d=" M 37.7021 -5.45404 L 18.6521 -5.48307 " />
<path id= "28" d=" M 18.6521 -5.48307 L 18.6498 -5.4876 " />
<path id= "29" d=" M 18.6498 -5.4876 L 18.6467 -4.47471 " />
<path d="M18.6548 -5.47763 A0.889 0.0013591 90.0873 0 1 18.6521 -4.59135" />
<path d="M18.6521 -4.59135 A0.889 0.0013591 90.0873 0 1 18.6521 -5.48307" />
<path id= "32" d=" M 18.6548 -5.47763 L 37.7048 -5.4486 " />
<path id= "33" d=" M 18.6467 -4.47471 L 18.6445 -2.99305 " />
<path id= "34" d=" M 18.6584 -5.47039 L 18.6548 -5.47763 " />
<path id= "35" d=" M 37.7084 -5.44135 L 18.6584 -5.47039 " />
<path d="M18.6445 -2.99305 A0.889 0.0013591 90.0873 0 1 18.6445 -2.10134" />
<path d="M18.6611 -5.46495 A0.889 0.0013591 90.0873 0 1 18.6584 -4.57867" />
<path d="M18.6584 -4.57867 A0.889 0.0013591 90.0873 0 1 18.6584 -5.47039" />
<path id= "39" d=" M 18.6611 -5.46495 L 37.7111 -5.43591 " />
<path d="M18.6445 -2.10134 A0.889 0.0013591 90.0873 0 1 18.6418 -1.21506" />
<path d="M18.6418 -1.21506 A0.889 0.0013591 90.0873 0 1 18.6418 -1.21507" />
<path id= "42" d=" M 18.6418 -1.21507 L 18.6418 -1.21507 " />
<path id= "43" d=" M 18.6634 -5.46042 L 18.6611 -5.46495 " />
<path id= "44" d=" M 37.7134 -5.43138 L 18.6634 -5.46042 " />
<path id= "45" d=" M 18.6418 -1.21507 L 18.6381 1.15559 " />
<path id= "46" d=" M 37.7133 -4.41228 L 18.6634 -4.44132 " />
<path id= "47" d=" M 18.6634 -5.46042 L 18.6634 -4.44132 " />
<path d="M18.6381 1.15559 A0.889 0.0013591 90.0873 0 1 18.6381 2.0473" />
<path id= "49" d=" M 18.6634 -4.44132 L 18.6611 -2.95966 " />
<path id= "50" d=" M 37.7111 -2.93062 L 18.6611 -2.95966 " />
<path d="M18.6381 2.0473 A0.889 0.0013591 90.0873 0 1 18.6354 2.93358" />
<path d="M18.6354 2.93358 A0.889 0.0013591 90.0873 0 1 18.6354 2.93358" />
<path id= "53" d=" M 18.6354 2.93358 L 18.6354 2.93358 " />
<path d="M18.6584 -1.18167 A0.889 0.0013591 90.0873 0 1 18.6611 -2.95966" />
<path d="M18.6611 -2.95966 A0.889 0.0013591 90.0873 0 1 18.6611 -2.95966" />
<path id= "56" d=" M 37.7084 -1.15264 L 18.6584 -1.18167 " />
<path id= "57" d=" M 18.6354 2.93358 L 18.6332 4.41524 " />
<path id= "58" d=" M 18.6584 -1.18167 L 18.6548 1.18898 " />
<path id= "59" d=" M 37.7047 1.21802 L 18.6548 1.18898 " />
<path id= "60" d=" M 18.6331 5.43434 L 18.6332 4.41524 " />
<path d="M18.6521 2.96697 A0.889 0.0013591 90.0873 0 1 18.6548 1.18898" />
<path d="M18.6548 1.18898 A0.889 0.0013591 90.0873 0 1 18.6548 1.18898" />
<path id= "63" d=" M 37.702 2.99601 L 18.6521 2.96697 " />
<path id= "64" d=" M 18.6381 5.43887 L 18.6354 5.43887 " />
<path id= "65" d=" M 18.6354 5.43887 L 18.6331 5.43434 " />
<path id= "66" d=" M 18.6521 2.96697 L 18.6498 4.44863 " />
<path id= "67" d=" M 37.6998 4.47767 L 18.6498 4.44863 " />
<path d="M18.6354 5.43887 A0.889 0.0013591 90.0873 0 1 18.6381 4.55259" />
<path d="M18.6381 4.55259 A0.889 0.0013591 90.0873 0 1 18.6381 5.4443" />
<path id= "70" d=" M 37.6967 5.49055 L 18.6467 5.46152 " />
<path id= "71" d=" M 18.6498 4.44863 L 18.6467 5.46152 " />
<path id= "72" d=" M 18.6417 5.45155 L 18.6381 5.4443 " />
<path id= "73" d=" M 18.6444 5.45156 L 18.6417 5.45155 " />
<path id= "74" d=" M 18.6467 5.46152 L 18.6444 5.45699 " />
<path d="M18.6417 5.45155 A0.889 0.0013591 90.0873 0 1 18.6444 4.56527" />
<path d="M18.6444 4.56527 A0.889 0.0013591 90.0873 0 1 18.6444 5.45699" />
</g>
</g>



<g id="Ortho_0_-1"
   transform="rotate(90,160,225) translate(160,225) scale(1,1)"
  >
<g   fill="none"
   stroke="rgb(0, 0, 0)"
   stroke-linecap="butt"
   stroke-linejoin="miter"
   stroke-width="0.350000"
   transform="scale(1,-1)"
  >
<path id= "1" d=" M 5.48469 -17.0764 L 12.6712 -17.0764 " />
<path d="M5.4834,-16.6527 C6.27055,-15.399 6.49622,-13.9463 6.16969,-12.5771 " /><path d="M5.47154,-12.7741 Q5.80875,-12.6644 6.16969,-12.5771 " /><path d="M6.16969,-12.5771 L6.20462,-12.606 " /><path d="M5.46485,-10.5878 C5.82111,-11.2132 6.07246,-11.9004 6.20462,-12.606 " /><path id= "6" d=" M 5.46326 -10.066 L 21.4313 -10.066 " />
<path d="M5.4486 -14.7974 A0.889 0.888998 -44.9124 0 1 4.83643 -15.0444" />
<path id= "8" d=" M 4.44568 -19.0762 L 2.96402 -19.0807 " />
<path d="M2.96402 -19.0807 A0.889 0.888998 -44.9124 0 1 2.07231 -18.1944" />
<path d="M5.43591 -10.6488 A0.889 0.888998 -44.9124 0 1 4.82374 -10.8957" />
<path d="M2.07231 -18.1944 A0.889 0.888998 -44.9124 0 1 1.46013 -18.4414" />
<path id= "12" d=" M 1.18603 -19.0862 L -1.18462 -19.0934 " />
<path d="M-1.18462 -19.0934 A0.889 0.888998 -44.9124 0 1 -2.07634 -18.2071" />
<path d="M-2.07634 -18.2071 A0.889 0.888998 -44.9124 0 1 -2.68851 -18.4541" />
<path d="M2.68556 -8.77443 A0.889 0.888998 -44.9124 0 1 2.93062 -8.15878" />
<path id= "16" d=" M -2.96261 -19.0988 L -4.44427 -19.1034 " />
<path id= "17" d=" M -5.46337 -18.0905 L -4.44427 -19.1034 " />
<path d="M-1.46309 -8.7871 A0.889 0.888998 -44.9124 0 1 -1.21802 -8.17146" />
<path id= "19" d=" M -5.46337 -18.0905 L -5.4679 -16.6088 " />
<path d="M-4.82669 -16.3327 A0.889 0.888998 -44.9124 0 1 -5.47334 -14.8308" />
<path id= "21" d=" M -5.47334 -14.8308 L -5.48059 -12.4602 " />
<path id= "22" d=" M -5.48602 -10.6822 L -5.49055 -9.20052 " />
<path d="M-4.83938 -12.1841 A0.889 0.888998 -44.9124 0 1 -5.48602 -10.6822" />
<path id= "24" d=" M 6.20462 -12.606 L 21.4313 -12.606 " />
<path id= "25" d=" M 21.4313 -17.0764 L 21.4313 -12.606 " />
<path d="M17.3236,-17.0764 L17.1154,-16.7189  L16.8527,-16.3993  L16.5424,-16.1258  L16.1923,-15.9054  L15.8115,-15.7438  L15.4098,-15.6451  L14.9974,-15.612  L14.5851,-15.6451  L14.1833,-15.7438  L13.8025,-15.9054  L13.4524,-16.1258  L13.1421,-16.3993  L12.8794,-16.7189  L12.6712,-17.0764 " /><path id= "27" d=" M 17.3236 -17.0764 L 21.4313 -17.0764 " />
<path id= "28" d=" M 21.4313 -10.066 L 21.4313 -12.606 " />
<path id= "29" d=" M 5.48307 -16.5463 L 5.4876 -18.028 " />
<path id= "30" d=" M 5.4876 -18.028 L 4.47471 -19.0471 " />
<path id= "31" d=" M 4.47471 -19.0471 L 4.44568 -19.0762 " />
<path d="M5.47763 -14.7683 A0.889 0.888998 -44.9124 0 1 4.85077 -15.0297" />
<path d="M4.85077 -15.0297 A0.889 0.888998 -44.9124 0 1 5.48307 -16.5463" />
<path id= "34" d=" M 5.47763 -14.7683 L 5.4486 -14.7974 " />
<path id= "35" d=" M 2.96402 -19.0807 L 2.99305 -19.0516 " />
<path id= "36" d=" M 4.47471 -19.0471 L 2.99305 -19.0516 " />
<path id= "37" d=" M 5.47039 -12.3977 L 5.47763 -14.7683 " />
<path d="M2.99305 -19.0516 A0.889 0.888998 -44.9124 0 1 2.10134 -18.1653" />
<path d="M5.46495 -10.6197 A0.889 0.888998 -44.9124 0 1 4.83809 -10.881" />
<path d="M4.83809 -10.881 A0.889 0.888998 -44.9124 0 1 5.47039 -12.3977" />
<path id= "41" d=" M 5.46495 -10.6197 L 5.43591 -10.6488 " />
<path d="M2.10134 -18.1653 A0.889 0.888998 -44.9124 0 1 1.47448 -18.4267" />
<path d="M1.47448 -18.4267 A0.889 0.888998 -44.9124 0 1 1.21507 -19.057" />
<path id= "44" d=" M 1.18603 -19.0862 L 1.21507 -19.057 " />
<path id= "45" d=" M 5.46042 -9.13802 L 5.46495 -10.6197 " />
<path id= "46" d=" M -1.18462 -19.0934 L -1.15559 -19.0643 " />
<path id= "47" d=" M 1.21507 -19.057 L -1.15559 -19.0643 " />
<path id= "48" d=" M 5.46042 -9.13802 L 4.44132 -8.12513 " />
<path d="M-1.15559 -19.0643 A0.889 0.888998 -44.9124 0 1 -2.0473 -18.178" />
<path id= "50" d=" M 4.44132 -8.12513 L 2.95966 -8.12966 " />
<path id= "51" d=" M 2.93062 -8.15878 L 2.95966 -8.12966 " />
<path d="M-2.0473 -18.178 A0.889 0.888998 -44.9124 0 1 -2.67416 -18.4393" />
<path d="M-2.67416 -18.4393 A0.889 0.888998 -44.9124 0 1 -2.93358 -19.0697" />
<path id= "54" d=" M -2.96261 -19.0988 L -2.93358 -19.0697 " />
<path d="M1.18167 -8.13509 A0.889 0.888998 -44.9124 0 1 2.70024 -8.76003" />
<path d="M2.70024 -8.76003 A0.889 0.888998 -44.9124 0 1 2.95966 -8.12966" />
<path id= "57" d=" M -4.41524 -19.0742 L -4.44427 -19.1034 " />
<path id= "58" d=" M -2.93358 -19.0697 L -4.41524 -19.0742 " />
<path id= "59" d=" M 1.18167 -8.13509 L -1.18898 -8.14234 " />
<path id= "60" d=" M -1.21802 -8.17146 L -1.18898 -8.14234 " />
<path id= "61" d=" M -5.43434 -18.0613 L -4.41524 -19.0742 " />
<path id= "62" d=" M -5.43434 -18.0613 L -5.46337 -18.0905 " />
<path d="M-2.96697 -8.14777 A0.889 0.888998 -44.9124 0 1 -1.4484 -8.77271" />
<path d="M-1.4484 -8.77271 A0.889 0.888998 -44.9124 0 1 -1.18898 -8.14234" />
<path id= "65" d=" M -5.4679 -16.6088 L -5.43887 -16.5797 " />
<path id= "66" d=" M -5.43887 -16.5797 L -5.43434 -18.0613 " />
<path id= "67" d=" M -2.96697 -8.14777 L -4.44863 -8.15229 " />
<path id= "68" d=" M -5.4443 -14.8017 L -5.47334 -14.8308 " />
<path d="M-5.43887 -16.5797 A0.889 0.888998 -44.9124 0 1 -4.81201 -16.3183" />
<path d="M-4.81201 -16.3183 A0.889 0.888998 -44.9124 0 1 -5.4443 -14.8017" />
<path id= "71" d=" M -5.49055 -9.20052 L -5.46152 -9.17139 " />
<path id= "72" d=" M -4.44863 -8.15229 L -5.46152 -9.17139 " />
<path id= "73" d=" M -5.45155 -12.431 L -5.4443 -14.8017 " />
<path id= "74" d=" M -5.48059 -12.4602 L -5.45155 -12.431 " />
<path id= "75" d=" M -5.46152 -9.17139 L -5.45699 -10.6531 " />
<path id= "76" d=" M -5.45699 -10.6531 L -5.48602 -10.6822 " />
<path d="M-5.45155 -12.431 A0.889 0.888998 -44.9124 0 1 -4.82469 -12.1697" />
<path d="M-4.82469 -12.1697 A0.889 0.888998 -44.9124 0 1 -5.45699 -10.6531" />
</g>
</g>



<g id="Ortho_2_0"
   transform="rotate(90,320,200) translate(320,200) scale(1,1)"
  >
<g   fill="none"
   stroke="rgb(0, 0, 0)"
   stroke-linecap="butt"
   stroke-linejoin="miter"
   stroke-width="0.350000"
   transform="scale(1,-1)"
  >
<path id= "1" d=" M -164.704 9.85422 L -37.7126 9.66007 " />
<path id= "2" d=" M -164.692 17.7917 L -37.7005 17.5976 " />
</g>
<g   fill="none"
   stroke="rgb(0, 0, 0)"
   stroke-linecap="butt"
   stroke-linejoin="miter"
   stroke-width="0.350000"
   transform="scale(1,-1)"
  >
<path d="M-158.064,17.0764 Q-156.497,17.0764 -154.934,17.0764 " /><path d="M-154.934,17.0764 C-154.525,16.8057 -154.025,16.436 -153.482,15.9777  C-152.939,15.5202 -152.354,14.9751 -151.778,14.3757  C-151.533,14.1219 -151.292,13.8603 -151.054,13.591 " /><path d="M-151.054,10.066 C-151.054,10.3864 -151.054,11.0526 -151.054,11.8822  C-151.054,12.4052 -151.054,12.9914 -151.054,13.591 " /><path d="M-164.706 12.6195 A3.96875 0.00604891 89.9124 0 0 -164.692 17.7917" />
<path d="M-164.692 17.7917 A3.96875 0.00604891 89.9124 0 0 -164.692 17.7917" />
<path d="M-164.704 9.85422 A3.96875 0.00604891 89.9124 0 0 -164.706 10.066" />
<path d="M-154.934,17.0764 C-155.499,17.0764 -156.023,17.0764 -156.541,17.0764  C-157.055,17.0764 -157.563,17.0764 -158.064,17.0764 " /><path d="M-151.054,13.591 C-151.751,13.1249 -152.617,12.8027 -153.565,12.5771 " /><path id= "9" d=" M -164.719 12.606 L -160.249 17.0764 " />
<path d="M-153.565,12.5771 L-153.594,12.606 " /><path d="M-151.054,10.066 C-151.3,10.066 -151.663,10.066 -152.037,10.066  C-152.53,10.066 -153.059,10.066 -153.594,10.066 " /><path id= "12" d=" M -164.719 10.066 L -153.594 10.066 " />
<path id= "13" d=" M -37.6998 18.0571 L -37.7021 16.5754 " />
<path id= "14" d=" M -37.6998 18.0571 L -37.6967 19.0762 " />
<path d="M-37.7048 14.7974 A0.889 0.00135496 -90.0876 0 1 -37.7021 16.5754" />
<path id= "16" d=" M -37.6967 19.0762 L -37.6944 19.0807 " />
<path id= "17" d=" M -37.7048 14.7974 L -37.7084 12.4268 " />
<path d="M-37.7111 10.6488 A0.889 0.00135496 -90.0876 0 1 -37.7084 12.4268" />
<path d="M-37.6917 19.0807 A0.889 0.00135496 -90.0876 0 1 -37.6917 19.0862" />
<path id= "20" d=" M -37.7111 10.6488 L -37.7134 9.16715 " />
<path id= "21" d=" M -37.6917 19.0862 L -37.6881 19.0934 " />
<path id= "22" d=" M -37.7134 9.16715 L -37.7133 8.15426 " />
<path d="M-37.6854 19.0934 A0.889 0.00135496 -90.0876 0 1 -37.6854 19.0988" />
<path id= "24" d=" M -37.6854 19.0988 L -37.6831 19.1034 " />
<path id= "25" d=" M -158.064 17.0764 L -153.594 12.606 " />
<path id= "26" d=" M -160.249 17.0764 L -158.064 17.0764 " />
<path id= "27" d=" M -153.594 10.066 L -153.594 12.606 " />
<path id= "28" d=" M -164.719 12.606 L -164.719 10.066 " />
<path id= "29" d=" M -18.6498 18.028 L -37.6998 18.0571 " />
<path id= "30" d=" M -37.7021 16.5754 L -18.6521 16.5463 " />
<path id= "31" d=" M -18.6521 16.5463 L -18.6498 18.028 " />
<path id= "32" d=" M -18.6498 18.028 L -18.6467 19.0471 " />
<path id= "33" d=" M -18.6467 19.0471 L -37.6967 19.0762 " />
<path d="M-18.6548 14.7683 A0.889 0.00135496 -90.0876 0 1 -18.6521 16.5463" />
<path d="M-18.6521 16.5463 A0.889 0.00135496 -90.0876 0 1 -18.6521 16.5463" />
<path id= "36" d=" M -18.6548 14.7683 L -37.7048 14.7974 " />
<path id= "37" d=" M -37.6944 19.0807 L -18.6445 19.0516 " />
<path id= "38" d=" M -18.6467 19.0471 L -18.6445 19.0516 " />
<path id= "39" d=" M -18.6584 12.3977 L -18.6548 14.7683 " />
<path id= "40" d=" M -37.7084 12.4268 L -18.6584 12.3977 " />
<path d="M-18.6445 19.0516 A0.889 0.00135496 -90.0876 0 1 -18.6445 18.1653" />
<path d="M-18.6445 18.1653 A0.889 0.00135496 -90.0876 0 1 -18.6445 18.1653" />
<path d="M-18.6611 10.6197 A0.889 0.00135496 -90.0876 0 1 -18.6584 12.3977" />
<path d="M-18.6584 12.3977 A0.889 0.00135496 -90.0876 0 1 -18.6584 12.3977" />
<path id= "45" d=" M -18.6611 10.6197 L -37.7111 10.6488 " />
<path d="M-18.6445 18.1653 A0.889 0.00135496 -90.0876 0 1 -18.6418 19.057" />
<path id= "47" d=" M -37.6917 19.0862 L -18.6418 19.057 " />
<path id= "48" d=" M -18.6634 9.13802 L -18.6611 10.6197 " />
<path id= "49" d=" M -37.7134 9.16715 L -18.6634 9.13802 " />
<path id= "50" d=" M -37.6881 19.0934 L -18.6381 19.0643 " />
<path id= "51" d=" M -18.6418 19.057 L -18.6381 19.0643 " />
<path id= "52" d=" M -37.7133 8.15426 L -18.6634 8.12513 " />
<path id= "53" d=" M -18.6634 9.13802 L -18.6634 8.12513 " />
<path d="M-18.6381 19.0643 A0.889 0.00135496 -90.0876 0 1 -18.6381 18.178" />
<path d="M-18.6381 18.178 A0.889 0.00135496 -90.0876 0 1 -18.6381 18.178" />
<path id= "56" d=" M -18.6634 8.12513 L -18.6611 8.12966 " />
<path d="M-18.6381 18.178 A0.889 0.00135496 -90.0876 0 1 -18.6354 19.0697" />
<path id= "58" d=" M -37.6854 19.0988 L -18.6354 19.0697 " />
<path d="M-18.6584 8.13509 A0.889 0.00135496 -90.0876 0 1 -18.6584 9.02138" />
<path d="M-18.6584 9.02138 A0.889 0.00135496 -90.0876 0 1 -18.6611 8.12966" />
<path id= "61" d=" M -18.6611 8.1351 L -18.6584 8.13509 " />
<path id= "62" d=" M -18.6332 19.0742 L -37.6831 19.1034 " />
<path id= "63" d=" M -18.6354 19.0697 L -18.6332 19.0742 " />
<path id= "64" d=" M -18.6584 8.13509 L -18.6548 8.14234 " />
<path id= "65" d=" M -18.6331 18.0613 L -18.6332 19.0742 " />
<path d="M-18.6521 8.14777 A0.889 0.00135496 -90.0876 0 1 -18.6521 9.03405" />
<path d="M-18.6521 9.03405 A0.889 0.00135496 -90.0876 0 1 -18.6548 8.14234" />
<path id= "68" d=" M -18.6548 8.14777 L -18.6521 8.14777 " />
<path id= "69" d=" M -18.6354 16.5797 L -18.6331 18.0613 " />
<path id= "70" d=" M -18.6521 8.14777 L -18.6498 8.15229 " />
<path id= "71" d=" M -18.6381 14.8017 L -18.6381 14.8017 " />
<path d="M-18.6354 16.5797 A0.889 0.00135496 -90.0876 0 1 -18.6381 14.8017" />
<path d="M-18.6381 14.8017 A0.889 0.00135496 -90.0876 0 1 -18.6381 14.8017" />
<path id= "74" d=" M -18.6498 8.15229 L -18.6467 9.17139 " />
<path id= "75" d=" M -18.6417 12.431 L -18.6381 14.8017 " />
<path id= "76" d=" M -18.6467 9.17139 L -18.6444 10.6531 " />
<path id= "77" d=" M -18.6444 10.6531 L -18.6444 10.6531 " />
<path d="M-18.6417 12.431 A0.889 0.00135496 -90.0876 0 1 -18.6444 10.653" />
<path d="M-18.6444 10.653 A0.889 0.00135496 -90.0876 0 1 -18.6444 10.6531" />
</g>
</g>



<g id="Ortho_-1_1"
   transform="rotate(60,75.5635,175) translate(75.5635,175) scale(1,1)"
  >
<g   fill="none"
   stroke="rgb(0, 0, 0)"
   stroke-linecap="butt"
   stroke-linejoin="miter"
   stroke-width="0.350000"
   transform="scale(1,-1)"
  >
<path id= "1" d=" M -118.295 52.5998 L -115.474 50.9709 " />
<path id= "2" d=" M -110.939 48.3529 L -28.6297 0.831847 " />
<path id= "3" d=" M -114.326 59.4738 L -24.661 7.70594 " />
<path d="M-113.852,48.5011 C-112.861,48.5182 -111.84,48.4716 -110.91,48.3362 " /></g>
<g   fill="none"
   stroke="rgb(0, 0, 0)"
   stroke-linecap="butt"
   stroke-linejoin="miter"
   stroke-width="0.350000"
   transform="scale(1,-1)"
  >
<path d="M-113.224,49.7461 L-111.009,48.4692 " /><path d="M-114.77,50.6372 L-113.224,49.7461 " /><path d="M-111.009,48.4691 Q-111.002,48.3904 -110.939,48.3529 " /><path d="M-115.474,50.9709 Q-115.119,50.7662 -114.77,50.6372 " /><path d="M-118.99 55.4786 A3.96875 2.29835 60.0002 0 1 -118.295 52.5998" />
<path d="M-118.295 52.5998 A3.96875 2.29835 60.0002 0 1 -116.315 52.7889" />
<path d="M-26.6497 1.02102 A3.96875 2.29835 60.0002 0 1 -24.661 7.70594" />
<path d="M-28.6297 0.831847 A3.96875 2.29835 60.0002 0 1 -26.6497 1.02102" />
<path d="M-116.315 52.7889 A3.96875 2.29835 60.0002 0 1 -114.326 59.4738" />
<path d="M-114.326 59.4738 A3.96875 2.29835 60.0002 0 1 -117.192 58.6126" />
<path id= "11" d=" M -115.437 48.4682 L -120.728 45.4136 " />
<path d="M-111.009,48.4691 C-111.94,48.5238 -112.896,48.5134 -113.852,48.5011 " /><path d="M-113.852,48.5011 Q-114.643,48.4886 -115.437,48.4682 " /><path d="M-122.258 46.3142 A2.57969 1.48938 -1.12615e-11 0 0 -120.728 45.4136" />
<path id= "15" d=" M -114.77 50.6372 L -122.258 46.3142 " />
<path id= "16" d=" M -116.474 56.9535 L -116.461 56.9303 " />
<path id= "17" d=" M -118.99 55.4786 L -116.461 56.9303 " />
<path d="M-122.258,46.3142 L-122.457,46.5053  L-122.662,46.6801  L-122.87,46.8374  L-123.08,46.9762  L-123.29,47.0954  L-123.499,47.1944  L-123.707,47.2725  L-123.91,47.3291  L-124.109,47.3639  L-124.301,47.3766  L-124.486,47.3671  L-124.662,47.3356  L-124.828,47.2822  L-124.983,47.2073 " /><path d="M-124.983,47.2073 L-125.083,47.1434  L-125.176,47.0698  L-125.264,46.9866  L-125.344,46.894  L-125.418,46.7925  L-125.485,46.6824  L-125.544,46.5639  L-125.596,46.4374  L-125.64,46.3034  L-125.676,46.1623  L-125.705,46.0144  L-125.725,45.8604  L-125.737,45.7006  L-125.741,45.5357 " /><path d="M-125.741,45.5357 C-125.741,45.18 -125.686,44.7926 -125.578,44.3973 " /><path id= "21" d=" M -125.578 44.3973 L -128.467 42.7291 " />
<path id= "22" d=" M -131.628 48.2042 L -128.467 42.7291 " />
<path id= "23" d=" M -116.474 56.9535 L -131.628 48.2042 " />
<path id= "24" d=" M -116.461 56.9303 L -116.463 59.0213 " />
<path id= "25" d=" M -116.474 59.0274 L -131.628 50.2781 " />
<path id= "26" d=" M -116.474 59.0274 L -116.463 59.0213 " />
<path id= "27" d=" M -30.5176 -1.58113 L -30.516 -0.368587 " />
<path id= "28" d=" M -30.5176 -1.58113 L -29.7992 -2.00097 " />
<path d="M-30.514 1.08646 A0.889 0.51483 -120 0 0 -30.0705 1.12884" />
<path d="M-30.0705 1.12884 A0.889 0.51483 -120 0 0 -30.516 -0.368587" />
<path id= "31" d=" M -29.7992 -2.00097 L -28.7499 -1.40071 " />
<path id= "32" d=" M -30.514 1.08646 L -30.5129 1.91911 " />
<path d="M-28.7499 -1.40071 A0.889 0.51483 -120 0 0 -28.1193 -0.313028" />
<path d="M-28.1193 -0.313028 A0.889 0.51483 -120 0 0 -27.6758 -0.270654" />
<path d="M-27.6758 -0.270654 A0.889 0.51483 -120 0 0 -27.4907 -0.680394" />
<path id= "36" d=" M -27.4907 -0.680394 L -25.8119 0.280027 " />
<path d="M-25.8119 0.280027 A0.889 0.51483 -120 0 0 -25.1813 1.36771" />
<path d="M-25.1813 1.36771 A0.889 0.51483 -120 0 0 -24.7378 1.41008" />
<path d="M-24.7378 1.41008 A0.889 0.51483 -120 0 0 -24.5527 1.00034" />
<path id= "40" d=" M -24.5527 1.00034 L -23.5034 1.60061 " />
<path id= "41" d=" M -26.5436 8.79282 L -25.8 9.21818 " />
<path id= "42" d=" M -22.7828 2.84367 L -23.5034 1.60061 " />
<path d="M-24.5409 9.9385 A0.889 0.51483 -120 0 0 -25.6149 8.80844" />
<path d="M-25.6149 8.80844 A0.889 0.51483 -120 0 0 -25.8 9.21818" />
<path id= "45" d=" M -22.7828 2.84367 L -22.7812 4.05621 " />
<path id= "46" d=" M -24.5409 9.9385 L -23.4916 10.5388 " />
<path d="M-22.7812 4.05621 A0.889 0.51483 -120 0 0 -23.2247 4.01384" />
<path d="M-23.2247 4.01384 A0.889 0.51483 -120 0 0 -22.7793 5.51126" />
<path id= "49" d=" M -23.4916 10.5388 L -22.7732 10.1189 " />
<path id= "50" d=" M -22.7793 5.51126 L -22.7767 7.45132 " />
<path id= "51" d=" M -22.7748 8.90637 L -22.7732 10.1189 " />
<path d="M-22.7767 7.45132 A0.889 0.51483 -120 0 0 -23.2202 7.40895" />
<path d="M-23.2202 7.40895 A0.889 0.51483 -120 0 0 -22.7748 8.90637" />
<path d="M-124.018,43.5143 Q-123.879,43.5945 -123.74,43.6747  Q-123.456,43.8387 -123.166,44.0061  Q-122.876,44.1734 -122.592,44.3375  Q-122.453,44.4178 -122.314,44.4981  Q-122.18,44.5753 -122.046,44.6525  Q-121.92,44.7257 -121.793,44.7988  Q-121.675,44.867 -121.557,44.9352  Q-121.449,44.9976 -121.341,45.06  Q-121.244,45.1157 -121.148,45.1715  Q-121.064,45.2199 -120.98,45.2684  Q-120.91,45.3089 -120.839,45.3494  Q-120.784,45.3815 -120.728,45.4136 " /><path id= "55" d=" M -124.018 43.5143 L -126.922 41.8373 " />
<path d="M-124.018 43.5143 A2.57969 1.48938 -1.12615e-11 0 0 -125.578 44.3973" />
<path id= "57" d=" M -116.474 56.9535 L -116.474 59.0274 " />
<path id= "58" d=" M -128.467 42.7291 L -126.922 41.8373 " />
<path id= "59" d=" M -131.628 48.2042 L -131.628 50.2781 " />
<path id= "60" d=" M -16.3493 -9.76616 L -29.7992 -2.00097 " />
<path id= "61" d=" M -29.8854 0.723539 L -30.514 1.08646 " />
<path id= "62" d=" M -28.7499 -1.40071 L -15.3 -9.1659 " />
<path id= "63" d=" M -16.3493 -9.76616 L -15.3 -9.1659 " />
<path d="M-15.3 -9.1659 A0.889 0.51483 -120 0 0 -14.6734 -8.08043" />
<path id= "65" d=" M -27.4907 -0.680394 L -14.0409 -8.44558 " />
<path id= "66" d=" M -25.8119 0.280027 L -12.362 -7.48516 " />
<path id= "67" d=" M -14.0409 -8.44558 L -12.362 -7.48516 " />
<path d="M-12.362 -7.48516 A0.889 0.51483 -120 0 0 -11.7353 -6.39969" />
<path id= "69" d=" M -24.5527 1.00034 L -11.1029 -6.76484 " />
<path id= "70" d=" M -10.0536 -6.16458 L -23.5034 1.60061 " />
<path id= "71" d=" M -11.1029 -6.76484 L -10.0536 -6.16458 " />
<path id= "72" d=" M -25.8 9.21818 L -25.1675 8.85303 " />
<path id= "73" d=" M -9.33297 -4.92151 L -10.0536 -6.16458 " />
<path id= "74" d=" M -9.33297 -4.92151 L -22.7828 2.84367 " />
<path id= "75" d=" M -22.7812 4.05621 L -9.33136 -3.70897 " />
<path id= "76" d=" M -9.33136 -3.70897 L -9.33297 -4.92151 " />
<path id= "77" d=" M -23.4916 10.5388 L -10.0417 2.77357 " />
<path id= "78" d=" M -9.32944 -2.25393 L -22.7793 5.51126 " />
<path d="M-9.95997 -3.34605 A0.889 0.51483 -120 0 0 -9.32944 -2.25393" />
<path id= "80" d=" M -22.7732 10.1189 L -9.32333 2.35373 " />
<path id= "81" d=" M -10.0417 2.77357 L -9.32333 2.35373 " />
<path id= "82" d=" M -9.32686 -0.313861 L -9.32944 -2.25393 " />
<path id= "83" d=" M -22.7767 7.45132 L -9.32686 -0.313861 " />
<path id= "84" d=" M -9.32333 2.35373 L -9.32494 1.14119 " />
<path id= "85" d=" M -9.32494 1.14119 L -22.7748 8.90637 " />
<path d="M-9.95547 0.0490609 A0.889 0.51483 -120 0 0 -9.32494 1.14119" />
</g>
</g>



<g> 
  <line x1="140.208300" y1="35.308000" x2="127.030278" y2="35.308000" style="stroke:rgb(0,0,255);stroke-width:0.50" />
<line x1="140.402400" y1="162.307800" x2="127.030278" y2="162.307800" style="stroke:rgb(0,0,255);stroke-width:0.50" />
<line x1="128.030278" y1="35.308000" x2="128.030278" y2="162.307800" style="stroke:rgb(0,0,255);stroke-width:0.50" /> 
  <polygon points="128.030278,162.307800 129.030278,159.307800 128.030278,158.307800 127.030278,159.307800" style="fill:rgb(0,0,255);stroke:rgb(0,0,255);stroke-width:0" /><polygon points="128.030278,35.308000 127.030278,38.308000 128.030278,39.308000 129.030278,38.308000" style="fill:rgb(0,0,255);stroke:rgb(0,0,255);stroke-width:0" /> 
  <text x="125.120499" y="99.461538" font-family="Verdana" font-size="5" fill="rgb(0,0,255)" text-anchor="inherit" transform="rotate(-90.000000 125.120499,99.461538)" >5</text> </g>


<g> 
  <line x1="138.925800" y1="181.366800" x2="116.449263" y2="181.366800" style="stroke:rgb(0,0,255);stroke-width:0.50" />
<line x1="140.208300" y1="35.308000" x2="116.449263" y2="35.308000" style="stroke:rgb(0,0,255);stroke-width:0.50" />
<line x1="117.449263" y1="181.366800" x2="117.449263" y2="35.308000" style="stroke:rgb(0,0,255);stroke-width:0.50" /> 
  <polygon points="117.449263,35.308000 116.449263,38.308000 117.449263,39.308000 118.449263,38.308000" style="fill:rgb(0,0,255);stroke:rgb(0,0,255);stroke-width:0" /><polygon points="117.449263,181.366800 118.449263,178.366800 117.449263,177.366800 116.449263,178.366800" style="fill:rgb(0,0,255);stroke:rgb(0,0,255);stroke-width:0" /> 
  <text x="113.481383" y="115.597586" font-family="Verdana" font-size="5" fill="rgb(0,0,255)" text-anchor="inherit" transform="rotate(-90.000000 113.481383,115.597586)" >5.75</text> </g>


<g> 
  <line x1="140.925800" y1="183.366800" x2="140.925800" y2="200.277977" style="stroke:rgb(0,0,255);stroke-width:0.50" />
<line x1="151.847710" y1="183.350200" x2="151.847710" y2="200.277977" style="stroke:rgb(0,0,255);stroke-width:0.50" />
<line x1="140.925800" y1="199.277977" x2="151.847710" y2="199.277977" style="stroke:rgb(0,0,255);stroke-width:0.50" /> 
  <polygon points="151.847710,199.277977 148.847710,198.277977 147.847710,199.277977 148.847710,200.277977" style="fill:rgb(0,0,255);stroke:rgb(0,0,255);stroke-width:0" /><polygon points="140.925800,199.277977 143.925800,200.277977 144.925800,199.277977 143.925800,198.277977" style="fill:rgb(0,0,255);stroke:rgb(0,0,255);stroke-width:0" /> 
  <text x="141.001630" y="205.842815" font-family="Verdana" font-size="5" fill="rgb(0,0,255)" text-anchor="inherit" transform="rotate(0.000000 141.001630,205.842815)" >0.43</text> </g>


<g transform="scale(1.000000,1.000000)" stroke="rgb(0,0,255)"  stroke-width="0.300000" > <path d="M 140.939350,225.029740 L 138.939350,225.029740 "/>
<path d="M 140.939350,225.029740 L 142.939350,225.029740 M 144.939350,225.029740 L 150.939350,225.029740 M 152.939350,225.029740 L 154.481088,225.029740 "/> </g> 


<g transform="scale(1.000000,1.000000)" stroke="rgb(0,0,255)"  stroke-width="0.300000" > <path d="M 144.388000,239.997400 L 142.388000,239.997400 M 140.388000,239.997400 L 136.355417,239.997400 "/>
<path d="M 144.388000,239.997400 L 146.388000,239.997400 M 148.388000,239.997400 L 154.388000,239.997400 M 156.388000,239.997400 L 158.388000,239.997400 "/> </g> 


<g> 
  <line x1="136.939350" y1="225.029740" x2="134.394164" y2="225.029740" style="stroke:rgb(0,0,255);stroke-width:0.50" />
<line x1="134.355417" y1="239.997400" x2="134.394164" y2="239.997400" style="stroke:rgb(0,0,255);stroke-width:0.50" />
<line x1="135.394164" y1="225.029740" x2="135.394164" y2="239.997400" style="stroke:rgb(0,0,255);stroke-width:0.50" /> 
  <polygon points="135.394164,239.997400 136.394164,236.997400 135.394164,235.997400 134.394164,236.997400" style="fill:rgb(0,0,255);stroke:rgb(0,0,255);stroke-width:0" /><polygon points="135.394164,225.029740 134.394164,228.029740 135.394164,229.029740 136.394164,228.029740" style="fill:rgb(0,0,255);stroke:rgb(0,0,255);stroke-width:0" /> 
  <text x="133.112567" y="239.780535" font-family="Verdana" font-size="5" fill="rgb(0,0,255)" text-anchor="inherit" transform="rotate(-90.000000 133.112567,239.780535)" >0.589</text> </g>


<g> 
  <line x1="144.309305" y1="217.558361" x2="144.309305" y2="213.724179" style="stroke:rgb(0,0,255);stroke-width:0.50" />
<line x1="148.457905" y1="217.545681" x2="148.457905" y2="213.724179" style="stroke:rgb(0,0,255);stroke-width:0.50" />
<line x1="144.309305" y1="214.724179" x2="148.457905" y2="214.724179" style="stroke:rgb(0,0,255);stroke-width:0.50" /> 
  <polygon points="148.457905,214.724179 151.457905,215.724179 152.457905,214.724179 151.457905,213.724179" style="fill:rgb(0,0,255);stroke:rgb(0,0,255);stroke-width:0" /><polygon points="144.309305,214.724179 141.309305,213.724179 140.309305,214.724179 141.309305,215.724179" style="fill:rgb(0,0,255);stroke:rgb(0,0,255);stroke-width:0" /> 
  <text x="139.158571" y="212.613625" font-family="Verdana" font-size="5" fill="rgb(0,0,255)" text-anchor="inherit" transform="rotate(0.000000 139.158571,212.613625)" >0.163</text> </g>


<g> 
  <line x1="142.923600" y1="248.431300" x2="142.923600" y2="253.694001" style="stroke:rgb(0,0,255);stroke-width:0.50" />
<line x1="149.934000" y1="248.431300" x2="149.934000" y2="253.694001" style="stroke:rgb(0,0,255);stroke-width:0.50" />
<line x1="142.923600" y1="252.694001" x2="149.934000" y2="252.694001" style="stroke:rgb(0,0,255);stroke-width:0.50" /> 
  <polygon points="149.934000,252.694001 152.934000,253.694001 153.934000,252.694001 152.934000,251.694001" style="fill:rgb(0,0,255);stroke:rgb(0,0,255);stroke-width:0" /><polygon points="142.923600,252.694001 139.923600,251.694001 138.923600,252.694001 139.923600,253.694001" style="fill:rgb(0,0,255);stroke:rgb(0,0,255);stroke-width:0" /> 
  <text x="139.184959" y="259.923718" font-family="Verdana" font-size="5" fill="rgb(0,0,255)" text-anchor="inherit" transform="rotate(0.000000 139.184959,259.923718)" >0.276</text> </g>


<g> 
  <line x1="151.934000" y1="246.431300" x2="174.871215" y2="246.431300" style="stroke:rgb(0,0,255);stroke-width:0.50" />
<line x1="152.828610" y1="219.538480" x2="174.871215" y2="219.538480" style="stroke:rgb(0,0,255);stroke-width:0.50" />
<line x1="173.871215" y1="246.431300" x2="173.871215" y2="219.538480" style="stroke:rgb(0,0,255);stroke-width:0.50" /> 
  <polygon points="173.871215,219.538480 172.871215,222.538480 173.871215,223.538480 174.871215,222.538480" style="fill:rgb(0,0,255);stroke:rgb(0,0,255);stroke-width:0" /><polygon points="173.871215,246.431300 174.871215,243.431300 173.871215,242.431300 172.871215,243.431300" style="fill:rgb(0,0,255);stroke:rgb(0,0,255);stroke-width:0" /> 
  <text x="180.179101" y="239.295313" font-family="Verdana" font-size="5" fill="rgb(0,0,255)" text-anchor="inherit" transform="rotate(-90.000000 180.179101,239.295313)" >1.059</text> </g>


<g> 
  <line x1="152.828610" y1="219.538480" x2="159.344111" y2="219.538480" style="stroke:rgb(0,0,255);stroke-width:0.50" />
<line x1="152.861980" y1="230.460420" x2="159.344111" y2="230.460420" style="stroke:rgb(0,0,255);stroke-width:0.50" />
<line x1="158.344111" y1="219.538480" x2="158.344111" y2="230.460420" style="stroke:rgb(0,0,255);stroke-width:0.50" /> 
  <polygon points="158.344111,230.460420 159.344111,227.460420 158.344111,226.460420 157.344111,227.460420" style="fill:rgb(0,0,255);stroke:rgb(0,0,255);stroke-width:0" /><polygon points="158.344111,219.538480 157.344111,222.538480 158.344111,223.538480 159.344111,222.538480" style="fill:rgb(0,0,255);stroke:rgb(0,0,255);stroke-width:0" /> 
  <text x="164.328515" y="231.936113" font-family="Verdana" font-size="5" fill="rgb(0,0,255)" text-anchor="inherit" transform="rotate(-90.000000 164.328515,231.936113)" >0.43</text> </g>


<g> 
  <line x1="142.208300" y1="33.308000" x2="142.208300" y2="27.437072" style="stroke:rgb(0,0,255);stroke-width:0.50" />
<line x1="150.145780" y1="33.296000" x2="150.145780" y2="27.437072" style="stroke:rgb(0,0,255);stroke-width:0.50" />
<line x1="142.208300" y1="28.437072" x2="150.145780" y2="28.437072" style="stroke:rgb(0,0,255);stroke-width:0.50" /> 
  <polygon points="150.145780,28.437072 153.145780,29.437072 154.145780,28.437072 153.145780,27.437072" style="fill:rgb(0,0,255);stroke:rgb(0,0,255);stroke-width:0" /><polygon points="142.208300,28.437072 139.208300,27.437072 138.208300,28.437072 139.208300,29.437072" style="fill:rgb(0,0,255);stroke:rgb(0,0,255);stroke-width:0" /> 
  <text x="138.730391" y="25.425046" font-family="Verdana" font-size="5" fill="rgb(0,0,255)" text-anchor="inherit" transform="rotate(0.000000 138.730391,25.425046)" >0.312</text> </g>


<g>  <circle cx ="254.997400" cy ="40.821000" r="0.250000" stroke="none" fill="rgb(0,0,255)" /> 
<line x1="259.108545" y1="30.763074" x2="254.021349" y2="43.208912" style="stroke:rgb(0,0,255);stroke-width:0.50" />
<polygon points="255.973451,38.433088 258.034190,36.034472 257.486891,34.730454 256.182873,35.277752" style="fill:rgb(0,0,255);stroke:rgb(0,0,255);stroke-width:0" />
<polygon points="254.021349,43.208912 251.960610,45.607528 252.507909,46.911546 253.811927,46.364248" style="fill:rgb(0,0,255);stroke:rgb(0,0,255);stroke-width:0" />
<line x1="259.108545" y1="30.763074" x2="270.947962" y2="30.763074" style="stroke:rgb(0,0,255);stroke-width:0.50" />
<text x="256.682435" y="29.016275" font-family="Verdana" font-size="5" fill="rgb(0,0,255)" text-anchor="inherit" transform="rotate(0.000000 256.682435,29.016275)" >Ø0.203</text> </g>


<g> 
  <line x1="263.431300" y1="35.281000" x2="270.104118" y2="35.281000" style="stroke:rgb(0,0,255);stroke-width:0.50" />
<line x1="263.431300" y1="46.406000" x2="270.104118" y2="46.406000" style="stroke:rgb(0,0,255);stroke-width:0.50" />
<line x1="269.104118" y1="35.281000" x2="269.104118" y2="46.406000" style="stroke:rgb(0,0,255);stroke-width:0.50" /> 
  <polygon points="269.104118,46.406000 270.104118,43.406000 269.104118,42.406000 268.104118,43.406000" style="fill:rgb(0,0,255);stroke:rgb(0,0,255);stroke-width:0" /><polygon points="269.104118,35.281000 268.104118,38.281000 269.104118,39.281000 270.104118,38.281000" style="fill:rgb(0,0,255);stroke:rgb(0,0,255);stroke-width:0" /> 
  <text x="275.412004" y="48.619244" font-family="Verdana" font-size="5" fill="rgb(0,0,255)" text-anchor="inherit" transform="rotate(-90.000000 275.412004,48.619244)" >0.438</text> </g>


<g> 
  <line x1="241.150160" y1="50.946000" x2="241.150160" y2="60.744429" style="stroke:rgb(0,0,255);stroke-width:0.50" />
<line x1="261.431300" y1="48.406000" x2="261.431300" y2="60.744429" style="stroke:rgb(0,0,255);stroke-width:0.50" />
<line x1="241.150160" y1="59.744429" x2="261.431300" y2="59.744429" style="stroke:rgb(0,0,255);stroke-width:0.50" /> 
  <polygon points="261.431300,59.744429 258.431300,58.744429 257.431300,59.744429 258.431300,60.744429" style="fill:rgb(0,0,255);stroke:rgb(0,0,255);stroke-width:0" /><polygon points="241.150160,59.744429 244.150160,60.744429 245.150160,59.744429 244.150160,58.744429" style="fill:rgb(0,0,255);stroke:rgb(0,0,255);stroke-width:0" /> 
  <text x="246.525499" y="65.910224" font-family="Verdana" font-size="5" fill="rgb(0,0,255)" text-anchor="inherit" transform="rotate(0.000000 246.525499,65.910224)" >0.798</text> </g>


<g> 
  <line x1="339.076400" y1="39.751000" x2="343.241415" y2="39.751000" style="stroke:rgb(0,0,255);stroke-width:0.50" />
<line x1="339.076400" y1="41.936000" x2="343.241415" y2="41.936000" style="stroke:rgb(0,0,255);stroke-width:0.50" />
<line x1="342.241415" y1="39.751000" x2="342.241415" y2="41.936000" style="stroke:rgb(0,0,255);stroke-width:0.50" /> 
  <polygon points="342.241415,41.936000 341.241415,44.936000 342.241415,45.936000 343.241415,44.936000" style="fill:rgb(0,0,255);stroke:rgb(0,0,255);stroke-width:0" /><polygon points="342.241415,39.751000 343.241415,36.751000 342.241415,35.751000 341.241415,36.751000" style="fill:rgb(0,0,255);stroke:rgb(0,0,255);stroke-width:0" /> 
  <text x="348.970181" y="48.276226" font-family="Verdana" font-size="5" fill="rgb(0,0,255)" text-anchor="inherit" transform="rotate(-90.000000 348.970181,48.276226)" >0.086</text> </g>


<g> 
  <line x1="328.066000" y1="35.281000" x2="321.855633" y2="35.281000" style="stroke:rgb(0,0,255);stroke-width:0.50" />
<line x1="328.066000" y1="46.406000" x2="321.855633" y2="46.406000" style="stroke:rgb(0,0,255);stroke-width:0.50" />
<line x1="322.855633" y1="35.281000" x2="322.855633" y2="46.406000" style="stroke:rgb(0,0,255);stroke-width:0.50" /> 
  <polygon points="322.855633,46.406000 323.855633,43.406000 322.855633,42.406000 321.855633,43.406000" style="fill:rgb(0,0,255);stroke:rgb(0,0,255);stroke-width:0" /><polygon points="322.855633,35.281000 321.855633,38.281000 322.855633,39.281000 323.855633,38.281000" style="fill:rgb(0,0,255);stroke:rgb(0,0,255);stroke-width:0" /> 
  <text x="319.752337" y="47.978837" font-family="Verdana" font-size="5" fill="rgb(0,0,255)" text-anchor="inherit" transform="rotate(-90.000000 319.752337,47.978837)" >0.438</text> </g>


</svg>

