<?xml version="1.0" encoding="UTF-8" standalone="no"?>
<!-- Created with Inkscape (http://www.inkscape.org/) -->

<svg
   xmlns:dc="http://purl.org/dc/elements/1.1/"
   xmlns:cc="http://creativecommons.org/ns#"
   xmlns:rdf="http://www.w3.org/1999/02/22-rdf-syntax-ns#"
   xmlns:svg="http://www.w3.org/2000/svg"
   xmlns="http://www.w3.org/2000/svg"
   xmlns:sodipodi="http://sodipodi.sourceforge.net/DTD/sodipodi-0.dtd"
   xmlns:inkscape="http://www.inkscape.org/namespaces/inkscape"
   width="210mm"
   height="297mm"
   viewBox="0 0 210 297"
   version="1.1"
   id="svg389"
   inkscape:version="0.92.3 (2405546, 2018-03-11)"
   sodipodi:docname="HFL platform outline.svg">
  <defs
     id="defs383" />
  <sodipodi:namedview
     id="base"
     pagecolor="#ffffff"
     bordercolor="#666666"
     borderopacity="1.0"
     inkscape:pageopacity="0.0"
     inkscape:pageshadow="2"
     inkscape:zoom="0.35"
     inkscape:cx="-77.142857"
     inkscape:cy="560"
     inkscape:document-units="mm"
     inkscape:current-layer="layer1"
     showgrid="false"
     inkscape:window-width="1920"
     inkscape:window-height="1051"
     inkscape:window-x="4791"
     inkscape:window-y="419"
     inkscape:window-maximized="1" />
  <metadata
     id="metadata386">
    <rdf:RDF>
      <cc:Work
         rdf:about="">
        <dc:format>image/svg+xml</dc:format>
        <dc:type
           rdf:resource="http://purl.org/dc/dcmitype/StillImage" />
        <dc:title></dc:title>
      </cc:Work>
    </rdf:RDF>
  </metadata>
  <g
     inkscape:label="Layer 1"
     inkscape:groupmode="layer"
     id="layer1">
    <g
       id="Layer1001"
       transform="matrix(0.26458333,0,0,0.26458333,13.833929,44.889882)">
      <path
         d="M 18,522 H 306 V 18 H 18 Z"
         style="fill:none;stroke:#e30016;stroke-width:0.21600001;stroke-linecap:butt;stroke-linejoin:miter;stroke-dasharray:none"
         id="path31"
         inkscape:connector-curvature="0" />
      <path
         d="M 126,464.4 V 522"
         style="fill:none;stroke:#e30016;stroke-width:0.21600001;stroke-linecap:butt;stroke-linejoin:miter;stroke-dasharray:none"
         id="path33"
         inkscape:connector-curvature="0" />
      <path
         d="m 126.0001,464.4 h 72"
         style="fill:none;stroke:#e30016;stroke-width:0.21600001;stroke-linecap:butt;stroke-linejoin:miter;stroke-dasharray:none"
         id="path35"
         inkscape:connector-curvature="0" />
      <path
         d="m 198,522.0001 v -57.6"
         style="fill:none;stroke:#e30016;stroke-width:0.21600001;stroke-linecap:butt;stroke-linejoin:miter;stroke-dasharray:none"
         id="path37"
         inkscape:connector-curvature="0" />
      <path
         d="m 221.4,486.036 a 3.6361,3.636 0 0 1 3.6361,-3.636 3.6361,3.636 0 1 1 -3.6361,3.636 z"
         style="fill:none;stroke:#e30016;stroke-width:0.21600001;stroke-linecap:butt;stroke-linejoin:miter;stroke-dasharray:none"
         id="path39"
         inkscape:connector-curvature="0" />
      <path
         d="M 95.4,486.036 A 3.6361,3.636 0 0 1 99.0361,482.4 3.6361,3.636 0 1 1 95.4,486.036 Z"
         style="fill:none;stroke:#e30016;stroke-width:0.21600001;stroke-linecap:butt;stroke-linejoin:miter;stroke-dasharray:none"
         id="path41"
         inkscape:connector-curvature="0" />
      <path
         d="m 246.42,314.928 a 5.5081,5.508 0 0 1 5.5081,-5.508 5.5081,5.508 0 1 1 -5.5081,5.508 z"
         style="fill:none;stroke:#e30016;stroke-width:0.21600001;stroke-linecap:butt;stroke-linejoin:miter;stroke-dasharray:none"
         id="path43"
         inkscape:connector-curvature="0" />
      <path
         d="m 66.42,314.928 a 5.5081,5.508 0 0 1 5.5081,-5.508 5.5081,5.508 0 1 1 -5.5081,5.508 z"
         style="fill:none;stroke:#e30016;stroke-width:0.21600001;stroke-linecap:butt;stroke-linejoin:miter;stroke-dasharray:none"
         id="path45"
         inkscape:connector-curvature="0" />
      <path
         d="m 228.42,197.928 a 5.5081,5.508 0 0 1 5.5081,-5.508 5.5081,5.508 0 1 1 -5.5081,5.508 z"
         style="fill:none;stroke:#e30016;stroke-width:0.21600001;stroke-linecap:butt;stroke-linejoin:miter;stroke-dasharray:none"
         id="path47"
         inkscape:connector-curvature="0" />
      <path
         d="M 84.42,53.928 A 5.5081,5.508 0 0 1 89.9281,48.42 5.5081,5.508 0 1 1 84.42,53.928 Z"
         style="fill:none;stroke:#e30016;stroke-width:0.21600001;stroke-linecap:butt;stroke-linejoin:miter;stroke-dasharray:none"
         id="path49"
         inkscape:connector-curvature="0" />
    </g>
  </g>
</svg>
