<?xml version="1.0" encoding="UTF-8"?>
<!DOCTYPE svg PUBLIC "-//W3C//DTD SVG 1.1//EN" "http://www.w3.org/Graphics/SVG/1.1/DTD/svg11.dtd">
<!-- Creator: CorelDRAW 2017 -->
<svg xmlns="http://www.w3.org/2000/svg" xml:space="preserve" width="24in" height="12in" version="1.1" style="shape-rendering:geometricPrecision; text-rendering:geometricPrecision; image-rendering:optimizeQuality; fill-rule:evenodd; clip-rule:evenodd"
viewBox="0 0 24000 12000"
 xmlns:xlink="http://www.w3.org/1999/xlink">
 <defs>
  <style type="text/css">
   <![CDATA[
    .str0 {stroke:red;stroke-width:3;stroke-miterlimit:2.61313}
    .fil0 {fill:none}
   ]]>
  </style>
 </defs>
 <g id="Layer_x0020_1">
  <metadata id="CorelCorpID_0Corel-Layer"/>
  <g id="_627403360">
   <rect class="fil0 str0" transform="matrix(4.26771E-14 -1.6114 0.598518 1.58515E-14 17250 7250)" width="4344.06" height="6683.17"/>
   <line class="fil0 str0" x1="18750" y1="6450" x2="18750" y2= "7250" />
   <line class="fil0 str0" x1="18750" y1="6450" x2="19750" y2= "6450" />
   <line class="fil0 str0" x1="19750" y1="7250" x2="19750" y2= "6450" />
   <ellipse class="fil0 str0" transform="matrix(2.13995E-14 -0.808 0.606019 1.60501E-14 20125.5 6750.5)" rx="62.5" ry="83.33"/>
   <ellipse class="fil0 str0" transform="matrix(2.13995E-14 -0.808 0.606019 1.60501E-14 18375.5 6750.5)" rx="62.5" ry="83.33"/>
   <ellipse class="fil0 str0" transform="matrix(3.24171E-14 -1.224 0.918029 2.43136E-14 20499 4374)" rx="62.5" ry="83.33"/>
   <ellipse class="fil0 str0" transform="matrix(3.24171E-14 -1.224 0.918029 2.43136E-14 17999 4374)" rx="62.5" ry="83.33"/>
   <ellipse class="fil0 str0" transform="matrix(3.24171E-14 -1.224 0.918029 2.43136E-14 20249 2749)" rx="62.5" ry="83.33"/>
   <ellipse class="fil0 str0" transform="matrix(3.24171E-14 -1.224 0.918029 2.43136E-14 18249 749)" rx="62.5" ry="83.33"/>
  </g>
  <g id="_627387904">
   <rect class="fil0 str0" transform="matrix(4.26771E-14 -1.6114 0.598518 1.58515E-14 249.999 7250)" width="4344.06" height="6683.17"/>
   <line class="fil0 str0" x1="1750" y1="6450" x2="1750" y2= "7250" />
   <line class="fil0 str0" x1="1750" y1="6450" x2="2750" y2= "6450" />
   <line class="fil0 str0" x1="2750" y1="7250" x2="2750" y2= "6450" />
   <ellipse class="fil0 str0" transform="matrix(2.13995E-14 -0.808 0.606019 1.60501E-14 3125.5 6750.5)" rx="62.5" ry="83.33"/>
   <ellipse class="fil0 str0" transform="matrix(2.13995E-14 -0.808 0.606019 1.60501E-14 1375.5 6750.5)" rx="62.5" ry="83.33"/>
   <ellipse class="fil0 str0" transform="matrix(3.24171E-14 -1.224 0.918029 2.43136E-14 3499 4374)" rx="62.5" ry="83.33"/>
   <ellipse class="fil0 str0" transform="matrix(3.24171E-14 -1.224 0.918029 2.43136E-14 999 4374)" rx="62.5" ry="83.33"/>
   <ellipse class="fil0 str0" transform="matrix(3.24171E-14 -1.224 0.918029 2.43136E-14 3249 2749)" rx="62.5" ry="83.33"/>
   <ellipse class="fil0 str0" transform="matrix(3.24171E-14 -1.224 0.918029 2.43136E-14 1249 749)" rx="62.5" ry="83.33"/>
  </g>
  <g id="_627393472">
   <rect class="fil0 str0" transform="matrix(4.26771E-14 -1.6114 0.598518 1.58515E-14 4500 7250)" width="4344.06" height="6683.17"/>
   <line class="fil0 str0" x1="6000" y1="6450" x2="6000" y2= "7250" />
   <line class="fil0 str0" x1="6000" y1="6450" x2="7000" y2= "6450" />
   <line class="fil0 str0" x1="7000" y1="7250" x2="7000" y2= "6450" />
   <ellipse class="fil0 str0" transform="matrix(2.13995E-14 -0.808 0.606019 1.60501E-14 7375.5 6750.5)" rx="62.5" ry="83.33"/>
   <ellipse class="fil0 str0" transform="matrix(2.13995E-14 -0.808 0.606019 1.60501E-14 5625.5 6750.5)" rx="62.5" ry="83.33"/>
   <ellipse class="fil0 str0" transform="matrix(3.24171E-14 -1.224 0.918029 2.43136E-14 7749 4374)" rx="62.5" ry="83.33"/>
   <ellipse class="fil0 str0" transform="matrix(3.24171E-14 -1.224 0.918029 2.43136E-14 5249 4374)" rx="62.5" ry="83.33"/>
   <ellipse class="fil0 str0" transform="matrix(3.24171E-14 -1.224 0.918029 2.43136E-14 7499 2749)" rx="62.5" ry="83.33"/>
   <ellipse class="fil0 str0" transform="matrix(3.24171E-14 -1.224 0.918029 2.43136E-14 5499 749)" rx="62.5" ry="83.33"/>
  </g>
  <g id="_627414656">
   <rect class="fil0 str0" transform="matrix(4.26771E-14 -1.6114 0.598518 1.58515E-14 8750 7250)" width="4344.06" height="6683.17"/>
   <line class="fil0 str0" x1="10250" y1="6450" x2="10250" y2= "7250" />
   <line class="fil0 str0" x1="10250" y1="6450" x2="11250" y2= "6450" />
   <line class="fil0 str0" x1="11250" y1="7250" x2="11250" y2= "6450" />
   <ellipse class="fil0 str0" transform="matrix(2.13995E-14 -0.808 0.606019 1.60501E-14 11625.5 6750.5)" rx="62.5" ry="83.33"/>
   <ellipse class="fil0 str0" transform="matrix(2.13995E-14 -0.808 0.606019 1.60501E-14 9875.5 6750.5)" rx="62.5" ry="83.33"/>
   <ellipse class="fil0 str0" transform="matrix(3.24171E-14 -1.224 0.918029 2.43136E-14 11999 4374)" rx="62.5" ry="83.33"/>
   <ellipse class="fil0 str0" transform="matrix(3.24171E-14 -1.224 0.918029 2.43136E-14 9499 4374)" rx="62.5" ry="83.33"/>
   <ellipse class="fil0 str0" transform="matrix(3.24171E-14 -1.224 0.918029 2.43136E-14 11749 2749)" rx="62.5" ry="83.33"/>
   <ellipse class="fil0 str0" transform="matrix(3.24171E-14 -1.224 0.918029 2.43136E-14 9749 749)" rx="62.5" ry="83.33"/>
  </g>
  <g id="_627410752">
   <rect class="fil0 str0" transform="matrix(4.26771E-14 -1.6114 0.598518 1.58515E-14 13000 7250)" width="4344.06" height="6683.17"/>
   <line class="fil0 str0" x1="14500" y1="6450" x2="14500" y2= "7250" />
   <line class="fil0 str0" x1="14500" y1="6450" x2="15500" y2= "6450" />
   <line class="fil0 str0" x1="15500" y1="7250" x2="15500" y2= "6450" />
   <ellipse class="fil0 str0" transform="matrix(2.13995E-14 -0.808 0.606019 1.60501E-14 15875.5 6750.5)" rx="62.5" ry="83.33"/>
   <ellipse class="fil0 str0" transform="matrix(2.13995E-14 -0.808 0.606019 1.60501E-14 14125.5 6750.5)" rx="62.5" ry="83.33"/>
   <ellipse class="fil0 str0" transform="matrix(3.24171E-14 -1.224 0.918029 2.43136E-14 16249 4374)" rx="62.5" ry="83.33"/>
   <ellipse class="fil0 str0" transform="matrix(3.24171E-14 -1.224 0.918029 2.43136E-14 13749 4374)" rx="62.5" ry="83.33"/>
   <ellipse class="fil0 str0" transform="matrix(3.24171E-14 -1.224 0.918029 2.43136E-14 15999 2749)" rx="62.5" ry="83.33"/>
   <ellipse class="fil0 str0" transform="matrix(3.24171E-14 -1.224 0.918029 2.43136E-14 13999 749)" rx="62.5" ry="83.33"/>
  </g>
  <g id="_627409888">
   <rect class="fil0 str0" x="250" y="7500" width="7000" height="4000"/>
   <line class="fil0 str0" x1="6450" y1="10000" x2="7250" y2= "10000" />
   <line class="fil0 str0" x1="6450" y1="10000" x2="6450" y2= "9000" />
   <line class="fil0 str0" x1="7250" y1="9000" x2="6450" y2= "9000" />
   <circle class="fil0 str0" cx="6750.5" cy="8624.5" r="50.5"/>
   <circle class="fil0 str0" cx="6750.5" cy="10374.5" r="50.5"/>
   <circle class="fil0 str0" cx="4374" cy="8251" r="76.5"/>
   <circle class="fil0 str0" cx="4374" cy="10751" r="76.5"/>
   <circle class="fil0 str0" cx="2749" cy="8501" r="76.5"/>
   <circle class="fil0 str0" cx="749" cy="10501" r="76.5"/>
  </g>
  <g id="_627407488">
   <rect class="fil0 str0" x="7500" y="7500" width="7000" height="4000"/>
   <line class="fil0 str0" x1="13700" y1="10000" x2="14500" y2= "10000" />
   <line class="fil0 str0" x1="13700" y1="10000" x2="13700" y2= "9000" />
   <line class="fil0 str0" x1="14500" y1="9000" x2="13700" y2= "9000" />
   <circle class="fil0 str0" cx="14000.5" cy="8624.5" r="50.5"/>
   <circle class="fil0 str0" cx="14000.5" cy="10374.5" r="50.5"/>
   <circle class="fil0 str0" cx="11624" cy="8251" r="76.5"/>
   <circle class="fil0 str0" cx="11624" cy="10751" r="76.5"/>
   <circle class="fil0 str0" cx="9999" cy="8501" r="76.5"/>
   <circle class="fil0 str0" cx="7999" cy="10501" r="76.5"/>
  </g>
  <g id="_627404320">
   <rect class="fil0 str0" x="14750" y="7500" width="7000" height="4000"/>
   <line class="fil0 str0" x1="20950" y1="10000" x2="21750" y2= "10000" />
   <line class="fil0 str0" x1="20950" y1="10000" x2="20950" y2= "9000" />
   <line class="fil0 str0" x1="21750" y1="9000" x2="20950" y2= "9000" />
   <circle class="fil0 str0" cx="21250.5" cy="8624.5" r="50.5"/>
   <circle class="fil0 str0" cx="21250.5" cy="10374.5" r="50.5"/>
   <circle class="fil0 str0" cx="18874" cy="8251" r="76.5"/>
   <circle class="fil0 str0" cx="18874" cy="10751" r="76.5"/>
   <circle class="fil0 str0" cx="17249" cy="8501" r="76.5"/>
   <circle class="fil0 str0" cx="15249" cy="10501" r="76.5"/>
  </g>
 </g>
</svg>
